<?xml version="1.0" encoding="UTF-8"?>
<svg xmlns="http://www.w3.org/2000/svg" xmlns:xlink="http://www.w3.org/1999/xlink" width="2251" height="2251" viewBox="0 0 2251 2251">
<path fill-rule="nonzero" fill="rgb(0%, 0%, 0%)" fill-opacity="1" d="M 1595.148438 2.121094 C 1523.929688 11.050781 1462.019531 46.96875 1438.628906 93 C 1428.429688 113.191406 1413.828125 133.96875 1390.089844 162.128906 C 1355.269531 203.101562 1345.941406 214.941406 1333.109375 233.980469 C 1302.859375 279.03125 1289.839844 316.121094 1287.910156 363.109375 C 1285.441406 423.308594 1301.800781 480.210938 1344.539062 561.191406 C 1376.019531 620.609375 1391.140625 668.378906 1391.140625 707.210938 C 1391.140625 721.199219 1390.96875 721.589844 1382.179688 734.398438 C 1354.039062 775.960938 1301.800781 808 1239.539062 822.179688 L 1220.019531 826.640625 L 1204.019531 821.011719 C 1157.941406 804.5 1124.179688 797.519531 1091.289062 797.320312 C 1060.339844 797.320312 1028.679688 803.339844 994.03125 815.769531 L 982.777344 819.851562 L 967.300781 811.878906 C 943.382812 799.648438 927.554688 795.960938 891.675781 794.800781 C 874.265625 794.019531 843.839844 794.800781 821.328125 796.160156 C 772.789062 799.261719 776.304688 800.039062 719.5 770.128906 C 668.148438 742.949219 651.085938 735.570312 641.414062 736.339844 C 632.269531 737.121094 631.742188 738.679688 631.566406 771.878906 C 631.390625 810.140625 635.257812 831.308594 655.835938 901.210938 C 671.136719 953.449219 676.238281 973.839844 680.457031 1002 C 686.085938 1038.308594 686.964844 1061.21875 683.273438 1077.730469 C 680.808594 1088.988281 680.28125 1096.371094 681.160156 1113.460938 C 685.382812 1194.820312 717.566406 1349.59375 748.34375 1436.007812 C 754.148438 1452.320312 754.5 1454.84375 754.5 1475.039062 C 754.5 1486.886719 753.972656 1503.199219 753.441406 1511.355469 L 752.210938 1526.308594 L 733.570312 1541.453125 C 715.632812 1556.40625 689.601562 1584.175781 680.632812 1598.15625 L 676.238281 1604.953125 L 683.273438 1598.738281 C 687.140625 1595.242188 698.042969 1585.535156 707.367188 1577.183594 C 727.765625 1558.929688 748.871094 1542.8125 750.101562 1544.171875 C 752.210938 1546.308594 743.417969 1586.117188 738.496094 1597.574219 C 729.699219 1617.964844 713.167969 1640.296875 681.6875 1675.054688 C 587.949219 1777.976562 436.703125 1881.089844 298.820312 1935.851562 C 268.75 1947.890625 249.578125 1956.046875 230.410156 1965.175781 C 222.320312 1968.863281 213.351562 1971.195312 199.632812 1972.746094 C 134.914062 1980.515625 71.601562 2003.042969 43.460938 2028.285156 C 0.898438 2066.542969 -14.398438 2149.65625 17.609375 2168.683594 C 24.644531 2172.761719 26.753906 2173.152344 36.953125 2171.984375 C 52.605469 2170.042969 55.59375 2170.238281 67.730469 2173.734375 C 92.527344 2180.917969 119.964844 2183.054688 168.855469 2181.695312 C 245.886719 2179.753906 276.488281 2176.257812 294.777344 2167.132812 C 302.164062 2163.636719 303.21875 2163.636719 315.355469 2166.546875 C 322.210938 2168.101562 336.28125 2169.65625 346.484375 2169.851562 C 362.136719 2170.042969 365.828125 2169.460938 371.105469 2165.964844 C 379.546875 2160.527344 390.273438 2144.605469 391.679688 2135.476562 C 392.558594 2128.875 393.617188 2127.515625 400.296875 2124.214844 C 415.421875 2117.226562 442.332031 2112.5625 536.421875 2101.105469 C 633.851562 2089.261719 674.476562 2082.078125 709.652344 2070.8125 C 747.816406 2058.578125 763.117188 2047.511719 835.046875 1979.351562 C 849.292969 1965.757812 868.285156 1948.863281 876.902344 1942.261719 C 895.371094 1927.695312 923.15625 1912.355469 938.984375 1907.890625 C 952.878906 1904.003906 979.082031 1904.003906 991.921875 1907.890625 C 1038.351562 1921.871094 1053.300781 1924.199219 1099.199219 1925.753906 C 1136.839844 1926.917969 1177.460938 1924.976562 1248.160156 1918.570312 C 1356.140625 1908.664062 1393.429688 1908.859375 1421.921875 1919.347656 C 1461.488281 1933.910156 1533.070312 1980.515625 1623.109375 2050.035156 C 1655.828125 2075.472656 1756.421875 2155.480469 1785.96875 2179.949219 C 1796.699219 2188.6875 1817.269531 2204.414062 1831.699219 2214.902344 C 1846.289062 2225.582031 1860.539062 2236.261719 1863.699219 2238.789062 C 1870.558594 2244.417969 1878.300781 2243.640625 1894.828125 2235.292969 C 1905.910156 2229.660156 1906.089844 2229.660156 1911.191406 2233.351562 C 1923.5 2242.089844 1953.75 2246.941406 2010.199219 2249.855469 C 2037.289062 2251.214844 2051.878906 2248.886719 2063.839844 2241.3125 C 2068.941406 2238.011719 2069.46875 2238.011719 2075.269531 2241.503906 C 2083.71875 2246.359375 2108.511719 2245 2133.128906 2238.011719 C 2148.960938 2233.542969 2152.480469 2233.15625 2157.761719 2234.902344 C 2167.609375 2238.398438 2196.269531 2239.757812 2207.351562 2237.234375 C 2223.359375 2233.542969 2233.730469 2217.816406 2236.371094 2193.152344 C 2237.429688 2184.21875 2238.828125 2180.53125 2242.519531 2176.257812 C 2249.558594 2168.492188 2252.199219 2158.003906 2249.378906 2148.683594 C 2246.21875 2137.808594 2226.871094 2117.613281 2204.539062 2101.496094 C 2193.808594 2093.921875 2182.378906 2084.601562 2178.859375 2080.910156 C 2170.589844 2072.171875 2154.238281 2063.433594 2119.238281 2048.675781 C 2051.878906 2020.710938 2026.03125 2007.894531 2003.171875 1991.195312 C 1985.578125 1978.378906 1975.730469 1968.085938 1965.878906 1951.96875 C 1936.691406 1904.394531 1871.089844 1834.484375 1744.109375 1715.835938 C 1719.140625 1692.53125 1698.210938 1671.949219 1697.679688 1670.394531 C 1696.101562 1666.125 1699.269531 1661.65625 1705.25 1659.714844 C 1708.058594 1658.9375 1739.191406 1657.382812 1774.539062 1656.414062 C 1832.398438 1654.859375 1853.679688 1653.113281 1882.171875 1647.480469 L 1888.679688 1646.316406 L 1891.320312 1656.609375 C 1892.898438 1662.433594 1896.058594 1679.714844 1898.519531 1695.25 C 1906.441406 1744.769531 1907.671875 1749.820312 1915.589844 1763.023438 C 1927.019531 1782.441406 1970.460938 1828.269531 1985.578125 1837.007812 C 1991.730469 1840.503906 2018.46875 1839.921875 2035.699219 1835.84375 C 2052.058594 1831.960938 2060.320312 1831.960938 2087.058594 1836.234375 C 2105 1838.953125 2107.808594 1838.953125 2121.699219 1836.039062 C 2130.140625 1834.289062 2141.75 1831.378906 2147.730469 1829.242188 C 2157.410156 1825.941406 2158.640625 1825.941406 2161.101562 1828.660156 C 2163.378906 1831.183594 2166.378906 1831.378906 2177.980469 1830.40625 C 2185.890625 1829.628906 2193.980469 1827.6875 2196.089844 1826.136719 C 2207 1818.367188 2196.628906 1785.550781 2166.378906 1730.59375 C 2150.550781 1702.046875 2142.28125 1689.230469 2130.851562 1676.222656 C 2120.46875 1664.179688 2113.441406 1659.714844 2099.890625 1656.609375 C 2094.621094 1655.25 2088.46875 1652.53125 2086.351562 1650.199219 C 2078.96875 1642.433594 2067.539062 1596.019531 2058.21875 1534.851562 L 2053.46875 1503.585938 L 2061.730469 1461.058594 C 2076.859375 1384.546875 2079.320312 1362.21875 2079.320312 1304.929688 C 2079.320312 1262.402344 2077.730469 1239.679688 2071.578125 1200.070312 C 2043.96875 1020.828125 1944.601562 831.308594 1792.128906 667.210938 C 1757.660156 630.320312 1727.410156 601.769531 1693.640625 574.78125 C 1626.628906 521.179688 1570.878906 457.101562 1526.039062 382.921875 C 1509.5 355.539062 1505.628906 341.941406 1508.628906 323.890625 C 1515.308594 284.078125 1555.410156 247.769531 1656.179688 190.28125 C 1747.449219 138.238281 1770.140625 123.089844 1786.5 104.261719 C 1799.339844 89.109375 1802.320312 78.238281 1796.699219 66.390625 C 1786.671875 45.230469 1737.25 17.261719 1691.878906 6.96875 C 1661.628906 0.171875 1625.230469 -1.570312 1595.148438 2.121094 Z M 1595.148438 2.121094 "/>
</svg>
