<?xml version="1.0" encoding="UTF-8"?>
<svg xmlns="http://www.w3.org/2000/svg" xmlns:xlink="http://www.w3.org/1999/xlink" width="2100" height="2100" viewBox="0 0 2100 2100">
<path fill-rule="evenodd" fill="rgb(0%, 0%, 0%)" fill-opacity="1" d="M 1039.289062 1250.097656 C 1037.089844 1263.65625 1034.160156 1277.21875 1030.488281 1290.78125 C 1029.03125 1296.28125 1027.558594 1302.511719 1026.089844 1309.109375 C 1007.03125 1387.183594 1000.441406 1475.523438 1007.03125 1574.121094 C 1009.230469 1601.980469 1012.171875 1630.203125 1016.558594 1658.0625 C 1019.5 1678.585938 1022.058594 1698.746094 1024.261719 1718.175781 C 992.738281 1715.242188 967.445312 1693.984375 948.753906 1654.765625 C 873.351562 1493.398438 938.089844 1438.828125 994.203125 1311.308594 C 1011.800781 1275.386719 1022.429688 1234.703125 1025.359375 1188.882812 C 1031.039062 1088.589844 984.953125 998.839844 875.808594 979.21875 C 810.933594 967.859375 748.621094 977.75 689.238281 1009.269531 C 683.371094 1012.941406 678.242188 1016.96875 674.210938 1021.371094 C 522.265625 1153.949219 800.542969 1351.261719 829.625 1142.699219 C 832.558594 1124.738281 830.726562 1107.507812 823.761719 1091.378906 C 817.164062 1075.25 803.601562 1065.71875 783.441406 1062.058594 C 762.914062 1059.859375 744.585938 1064.621094 729.191406 1076.351562 C 660.21875 1130.539062 764.675781 1201.714844 779.773438 1146.363281 C 780.875 1142.332031 778.308594 1137.199219 771.710938 1130.601562 C 759.8125 1125.84375 720.621094 1161.734375 732.121094 1121.4375 C 734.324219 1114.105469 739.089844 1107.507812 746.421875 1102.378906 C 754.117188 1096.878906 762.546875 1095.050781 771.710938 1096.511719 C 781.242188 1099.078125 787.472656 1103.476562 790.40625 1108.609375 C 793.703125 1114.105469 796.636719 1120.339844 798.46875 1127.671875 C 799.203125 1130.234375 799.9375 1133.53125 800.667969 1137.199219 C 802.132812 1162.125 792.972656 1178.617188 773.542969 1186.683594 C 640.335938 1238.492188 632.472656 1007.390625 821.195312 1021.371094 C 1238.441406 1048.671875 641.632812 1625.335938 1012.171875 1778.65625 C 1023.160156 1783.421875 1032.691406 1787.820312 1040.761719 1792.21875 C 1048.820312 1796.617188 1053.578125 1799.183594 1054.320312 1799.914062 L 1387.140625 1799.914062 L 1391.539062 1798.816406 C 1394.109375 1798.085938 1397.769531 1796.984375 1401.441406 1795.515625 C 1405.46875 1794.050781 1409.140625 1792.585938 1412.800781 1791.117188 C 1415 1790.386719 1417.199219 1788.550781 1419.761719 1785.621094 C 1422.328125 1783.054688 1424.53125 1779.757812 1426.730469 1776.089844 C 1428.929688 1772.425781 1430.398438 1769.492188 1431.128906 1767.660156 C 1432.601562 1762.527344 1433.691406 1757.03125 1434.429688 1751.53125 C 1444.320312 1679.6875 1442.859375 1601.980469 1430.03125 1518.40625 C 1423.429688 1464.527344 1412.070312 1416.875 1395.570312 1374.355469 C 1384.210938 1342.832031 1371.378906 1311.675781 1357.089844 1280.886719 C 1354.890625 1277.585938 1353.050781 1273.921875 1351.589844 1270.257812 C 1347.921875 1264.757812 1345.359375 1258.890625 1343.160156 1253.027344 C 1338.761719 1238 1335.828125 1222.238281 1334.359375 1205.742188 C 1333.628906 1203.175781 1332.890625 1199.878906 1332.160156 1196.214844 C 1327.398438 1158.460938 1320.800781 1120.339844 1313.101562 1082.578125 C 1310.171875 1064.621094 1306.871094 1047.03125 1303.199219 1029.800781 C 1297.699219 990.949219 1292.570312 952.089844 1288.179688 912.871094 C 1284.878906 874.019531 1279.738281 835.53125 1273.148438 796.679688 C 1266.921875 761.488281 1258.488281 726.671875 1248.589844 691.480469 C 1240.160156 657.761719 1229.890625 625.128906 1218.53125 593.609375 C 1217.800781 593.238281 1217.070312 592.511719 1216.328125 591.78125 C 1209.730469 576.75 1204.96875 561.351562 1201.300781 545.589844 C 1199.101562 534.601562 1197.640625 523.96875 1196.910156 513.339844 C 1195.441406 504.539062 1194.339844 496.109375 1193.96875 487.308594 C 1191.769531 477.421875 1188.480469 464.949219 1184.808594 450.289062 C 1180.78125 435.628906 1176.738281 422.070312 1172.710938 409.609375 C 1169.050781 397.140625 1166.480469 389.808594 1165.75 387.609375 C 1187.378906 376.980469 1209.730469 366.71875 1233.558594 357.550781 C 1248.589844 350.960938 1263.621094 344.730469 1278.640625 338.128906 C 1270.210938 338.859375 1261.78125 341.429688 1254.089844 345.820312 C 1251.890625 347.289062 1250.050781 348.390625 1248.589844 349.121094 C 1241.988281 350.960938 1236.128906 353.519531 1230.261719 356.460938 C 1213.03125 364.519531 1193.96875 372.21875 1173.449219 379.910156 L 1169.050781 382.109375 C 1166.851562 382.851562 1165.019531 383.210938 1163.550781 383.210938 C 1162.449219 380.28125 1160.621094 378.078125 1158.421875 375.878906 C 1159.878906 372.949219 1162.449219 370.019531 1165.75 367.089844 L 1167.949219 364.890625 C 1176.011719 357.191406 1184.078125 349.121094 1192.871094 340.328125 C 1198.371094 334.460938 1204.601562 328.960938 1210.828125 323.101562 C 1215.96875 317.601562 1221.460938 312.46875 1226.960938 308.070312 C 1241.261719 294.511719 1254.820312 280.949219 1266.921875 267.390625 C 1243.820312 287.910156 1221.460938 309.539062 1199.101562 331.898438 C 1185.539062 345.460938 1171.609375 359.019531 1157.320312 372.578125 C 1153.648438 368.921875 1149.988281 365.621094 1146.691406 363.050781 C 1145.960938 360.851562 1146.691406 357.550781 1148.519531 353.890625 C 1150.71875 349.859375 1152.921875 346.191406 1155.121094 342.53125 L 1157.320312 338.128906 C 1162.820312 326.761719 1169.410156 315.039062 1176.738281 302.941406 C 1184.441406 287.910156 1191.769531 274.710938 1198 264.089844 C 1196.539062 264.089844 1193.609375 268.121094 1188.839844 275.808594 C 1184.441406 283.878906 1178.941406 293.410156 1172.710938 304.410156 C 1166.851562 315.398438 1160.980469 326.398438 1155.121094 337.03125 C 1150.71875 346.558594 1147.050781 353.890625 1143.390625 359.75 C 1126.890625 350.960938 1104.898438 347.289062 1077.78125 348.019531 L 1056.519531 348.019531 C 1045.519531 348.019531 1035.621094 347.660156 1026.089844 346.921875 C 1018.398438 344.730469 1009.96875 341.789062 1000.441406 338.128906 C 993.472656 334.460938 986.140625 331.898438 979.175781 329.699219 C 962.679688 323.101562 944.355469 320.53125 924.195312 322 C 907.699219 324.929688 899.269531 331.898438 898.902344 342.890625 C 898.535156 354.261719 901.46875 366.71875 906.96875 381.011719 C 912.832031 394.941406 915.765625 407.410156 915.765625 418.769531 C 915.765625 431.601562 912.097656 444.789062 904.769531 458.359375 C 904.035156 460.558594 903.300781 463.121094 902.933594 466.050781 C 896.335938 486.210938 888.273438 502.710938 878.007812 516.640625 C 873.242188 521.398438 866.28125 527.269531 857.847656 533.5 C 849.054688 540.089844 841.355469 546.691406 834.023438 553.660156 C 827.058594 560.261719 823.027344 566.851562 822.292969 573.449219 C 821.5625 587.011719 826.691406 597.28125 837.320312 603.871094 C 847.953125 610.839844 859.316406 615.96875 871.777344 619.640625 C 875.808594 621.828125 879.84375 623.671875 883.507812 624.769531 C 897.804688 630.628906 909.898438 636.128906 919.796875 640.890625 C 930.058594 646.03125 939.957031 651.890625 949.851562 658.121094 C 932.257812 670.21875 913.5625 682.679688 894.136719 694.78125 C 887.175781 699.179688 879.84375 703.578125 872.878906 708.710938 C 874.710938 708.710938 881.308594 705.410156 891.9375 699.179688 C 902.933594 692.578125 913.929688 685.25 925.292969 677.550781 C 936.65625 669.851562 945.820312 663.621094 952.050781 659.21875 C 955.71875 660.691406 959.015625 662.148438 961.949219 663.621094 C 964.882812 665.820312 967.8125 667.648438 971.480469 669.121094 C 954.253906 694.039062 935.925781 718.96875 916.863281 744.261719 C 912.464844 751.230469 907.699219 758.191406 902.933594 764.421875 L 900.734375 766.621094 C 899.269531 768.089844 897.804688 769.921875 896.703125 772.121094 C 895.605469 774.320312 895.238281 776.519531 895.238281 778.351562 C 921.628906 743.53125 947.652344 707.609375 972.578125 670.949219 C 975.511719 672.421875 978.441406 673.890625 981.007812 675.351562 C 984.675781 677.550781 988.707031 679.378906 993.105469 680.851562 C 990.171875 690.75 986.875 700.640625 983.207031 710.898438 C 976.246094 730.328125 970.011719 750.128906 965.246094 771.019531 C 973.679688 746.460938 981.742188 721.898438 989.808594 696.980469 C 991.273438 691.839844 993.105469 686.710938 995.304688 681.949219 C 1005.929688 685.609375 1017.300781 686.351562 1029.390625 684.878906 C 1040.390625 683.78125 1050.648438 684.148438 1060.550781 685.980469 C 1074.839844 691.839844 1085.109375 706.871094 1090.609375 730.699219 C 1096.46875 754.519531 1099.039062 779.078125 1098.300781 804.371094 C 1094.640625 867.421875 1085.839844 926.429688 1071.179688 981.421875 C 1066.410156 1004.511719 1061.28125 1027.601562 1056.519531 1051.429688 C 1051.390625 1084.050781 1047.71875 1118.503906 1045.519531 1154.425781 L 1043.320312 1181.1875 L 1043.320312 1189.613281 C 1042.589844 1196.214844 1042.21875 1202.808594 1042.21875 1209.042969 C 1042.21875 1222.605469 1041.488281 1236.167969 1039.289062 1250.097656 "/>
</svg>
