<?xml version="1.0" encoding="UTF-8"?>
<svg xmlns="http://www.w3.org/2000/svg" xmlns:xlink="http://www.w3.org/1999/xlink" width="3000" height="3000" viewBox="0 0 3000 3000">
<rect x="-300" y="-300" width="3600" height="3600" fill="rgb(100%, 100%, 100%)" fill-opacity="1"/>
<path fill-rule="nonzero" fill="rgb(0%, 0%, 0%)" fill-opacity="1" d="M 1286.960938 614.558594 C 1269.710938 612 1245.980469 622.859375 1221.308594 640.558594 C 1182.621094 668.320312 1143.578125 711.480469 1104.25 754.960938 L 1104.230469 754.988281 L 1104.230469 754.980469 L 1104.210938 755 L 1104.199219 755.019531 C 1103.609375 755.671875 1102.691406 755.988281 1101.800781 755.859375 C 1101.640625 755.828125 1101.480469 755.800781 1101.320312 755.75 L 1101.289062 755.738281 C 1101.25 755.71875 1101.210938 755.699219 1101.171875 755.679688 C 1094.160156 752.871094 1087.320312 750.121094 1076.570312 748.109375 L 1076.539062 748.109375 C 1076.488281 748.089844 1076.441406 748.078125 1076.390625 748.070312 C 1074.589844 747.730469 1072.539062 747.398438 1070.511719 747.101562 C 1060.300781 745.589844 1047.910156 744.53125 1035.25 743.449219 L 1035.261719 743.449219 L 1035.21875 743.441406 L 1035.230469 743.441406 L 1035.160156 743.441406 C 1035.121094 743.441406 1035.058594 743.429688 1035.019531 743.421875 C 1034.640625 743.371094 1034.261719 743.21875 1033.910156 743 C 1024.519531 736.738281 1015.21875 730.5 976.546875 690.230469 L 976.511719 690.230469 C 976.464844 690.148438 976.410156 690.078125 976.347656 690.019531 C 970.691406 684.121094 964.449219 677.550781 957.792969 670.53125 C 918.363281 629 867.796875 576.019531 854.203125 573.609375 L 854.164062 573.601562 L 854.132812 573.589844 C 853.46875 573.5 852.835938 573.910156 852.65625 574.558594 C 851.820312 577.558594 853.441406 586.039062 858.101562 599.769531 C 862.078125 611.46875 867.699219 625.648438 873.5625 640.429688 L 873.664062 640.679688 C 879.914062 656.429688 886.40625 672.808594 891.363281 687.410156 C 908.210938 737.03125 907.164062 765.761719 906.046875 794.191406 C 906.042969 794.289062 906.050781 794.390625 906.070312 794.488281 L 906.039062 794.480469 C 906.015625 795.011719 905.847656 795.511719 905.546875 795.941406 C 897.648438 807.300781 889.699219 818.71875 872.382812 837.171875 C 871.042969 838.601562 869.550781 840.171875 868.121094 841.679688 C 868.097656 841.699219 868.03125 841.769531 868.011719 841.789062 C 850.980469 859.710938 828.171875 883.75 817.53125 921.210938 C 815.835938 927.191406 814.4375 933.539062 813.28125 940.121094 C 809.601562 961.019531 808.335938 984.089844 807.171875 1005.339844 L 807.160156 1005.550781 L 807.148438 1005.769531 C 806.191406 1023.308594 805.285156 1039.648438 803.089844 1052.140625 C 799.875 1070.390625 793.910156 1080.441406 789.667969 1087.578125 L 789.617188 1087.71875 L 789.582031 1087.71875 C 786.199219 1093.421875 784.589844 1096.390625 785.199219 1100.070312 C 786.828125 1109.898438 803.453125 1125.199219 821.726562 1141.769531 L 821.871094 1141.910156 L 821.910156 1141.960938 C 843.332031 1163.988281 864.039062 1185.140625 895.15625 1189.738281 C 896.429688 1189.929688 897.707031 1190.089844 899.015625 1190.21875 C 899.058594 1190.230469 899.097656 1190.230469 899.140625 1190.230469 L 899.109375 1190.230469 C 902.085938 1190.519531 905.1875 1190.671875 908.363281 1190.699219 C 908.390625 1190.699219 908.421875 1190.699219 908.449219 1190.699219 L 908.417969 1190.691406 C 924.8125 1190.808594 943.359375 1187.601562 962.113281 1184.351562 L 962.34375 1184.308594 L 963.066406 1184.179688 C 981.167969 1181.050781 999.417969 1177.921875 1015.519531 1178.039062 C 1020.75 1178.078125 1025.808594 1178.460938 1030.570312 1179.171875 C 1059.058594 1183.378906 1079.019531 1199.128906 1087.46875 1222.050781 C 1097.109375 1248.191406 1091.488281 1283.308594 1086 1317.429688 L 1085.929688 1317.878906 L 1085.859375 1318.308594 L 1085.859375 1318.300781 C 1085.839844 1318.441406 1085.808594 1318.570312 1085.761719 1318.710938 C 1085.671875 1319 1085.679688 1319.308594 1085.789062 1319.578125 L 1085.75 1319.570312 C 1087.441406 1360.640625 1089.179688 1401.808594 1097.519531 1461.628906 C 1098.328125 1467.460938 1099.128906 1472.949219 1100.019531 1479.070312 C 1100.058594 1479.289062 1100.058594 1479.339844 1100.089844 1479.558594 L 1100.210938 1480.390625 C 1100.21875 1480.441406 1100.339844 1481.230469 1100.339844 1481.230469 C 1108.648438 1538.339844 1118.621094 1608.171875 1094.921875 1656.851562 C 1086.558594 1674.03125 1074.058594 1688.488281 1060.410156 1704.25 L 1060.199219 1704.480469 L 1060.109375 1704.589844 C 1030.5 1738.789062 994.464844 1780.46875 978.511719 1872.820312 C 955.023438 2008.8125 975.191406 2253.34375 1068.351562 2367.058594 C 1115.941406 2425.148438 1182.820312 2449.320312 1251.769531 2459.515625 C 1279.609375 2463.632812 1307.71875 2465.460938 1335.011719 2466.335938 C 1354.21875 2466.953125 1373.039062 2467.09375 1390.980469 2467.230469 L 1391 2467.226562 L 1391.171875 2467.230469 L 1391.359375 2467.230469 C 1407.539062 2467.351562 1423.191406 2467.472656 1437.699219 2467.9375 L 1437.730469 2467.941406 C 1462.019531 2468.71875 1483.359375 2470.457031 1502.710938 2472.039062 C 1502.75 2472.039062 1502.789062 2472.042969 1502.820312 2472.042969 L 1502.78125 2472.035156 C 1543.441406 2475.339844 1574.671875 2477.851562 1604.058594 2469.3125 L 1604.019531 2469.308594 C 1627.851562 2471.714844 1652.839844 2473.730469 1679.761719 2475.109375 C 1702.480469 2476.269531 1726.539062 2476.976562 1752.460938 2477.074219 C 1856.769531 2477.46875 1987 2467.824219 2057.039062 2355.753906 C 2081.980469 2315.851562 2099.53125 2262.660156 2113.289062 2203.617188 C 2126.25 2148.03125 2135.730469 2087.761719 2144.96875 2029.136719 L 2145 2028.949219 L 2145.019531 2028.761719 C 2153.640625 1974.050781 2162.039062 1920.730469 2172.800781 1874.589844 C 2207.429688 1726 2266.519531 1651.429688 2353.980469 1567.480469 C 2368.339844 1553.699219 2383.601562 1539.53125 2398.558594 1525.640625 L 2398.648438 1525.558594 C 2452.558594 1475.550781 2502.519531 1428.910156 2512.25 1400.878906 C 2515.800781 1390.679688 2513.628906 1384.859375 2503.289062 1381.269531 C 2500.648438 1380.359375 2497.449219 1379.601562 2493.671875 1379.039062 C 2493.25 1378.980469 2492.820312 1378.921875 2492.390625 1378.859375 C 2489.871094 1378.53125 2487.179688 1378.289062 2484.320312 1378.140625 C 2409.398438 1374.308594 2218.148438 1434.308594 2128.691406 1601.53125 C 2076.71875 1698.679688 2058.859375 1832.210938 2041.769531 1960.621094 L 2041.628906 1961.699219 L 2041.628906 1961.691406 L 2041.480469 1962.769531 C 2026.191406 2077.664062 2011.308594 2188.628906 1971.820312 2262.398438 C 1916.179688 2366.308594 1812.449219 2395.945312 1694.128906 2400.558594 C 1753.148438 2328.496094 1816.25 2206.425781 1843.289062 2102.667969 C 1869.578125 2001.761719 1861.710938 1918.269531 1850.339844 1834.160156 L 1850.320312 1834.078125 C 1849.160156 1825.429688 1848.039062 1817.390625 1846.820312 1808.699219 L 1846.78125 1808.378906 C 1845.679688 1800.460938 1844.269531 1790.308594 1843.179688 1782.320312 L 1843.179688 1782.289062 C 1838.320312 1746.300781 1833.988281 1709.828125 1829.769531 1674.191406 L 1829.738281 1673.980469 C 1821.929688 1608.089844 1814.550781 1545.828125 1805.109375 1497.929688 C 1790.578125 1424.261719 1771.199219 1384.589844 1745.460938 1340.710938 C 1732.789062 1319.109375 1718.660156 1296.640625 1704.511719 1274.109375 L 1704.480469 1274.058594 L 1704.46875 1274.058594 L 1704.390625 1273.929688 L 1704.308594 1273.800781 C 1689.679688 1250.519531 1675.171875 1227.429688 1662.460938 1205.589844 C 1659.390625 1200.328125 1656.511719 1195.269531 1653.609375 1190.179688 C 1653.578125 1190.128906 1653.449219 1189.910156 1653.421875 1189.859375 L 1653.261719 1189.578125 C 1632.53125 1153.199219 1613.851562 1120.558594 1571.960938 1086.589844 C 1549.511719 1068.390625 1520.429688 1049.820312 1490.589844 1030.769531 L 1490.429688 1030.671875 L 1490.269531 1030.570312 L 1490.261719 1030.558594 C 1456.308594 1008.890625 1421.441406 986.609375 1395.019531 963.890625 C 1345.378906 921.179688 1325.578125 876.898438 1306.089844 833.109375 L 1306.058594 833.109375 L 1306.039062 832.980469 L 1305.859375 832.601562 C 1305.660156 832.148438 1305.589844 831.660156 1305.640625 831.171875 C 1314.949219 748.609375 1323.980469 667.570312 1309.609375 633.660156 C 1304.53125 621.671875 1296.628906 615.980469 1286.960938 614.558594 Z M 1286.960938 614.558594 "/>
</svg>
