<?xml version="1.0" encoding="UTF-8"?>
<svg xmlns="http://www.w3.org/2000/svg" xmlns:xlink="http://www.w3.org/1999/xlink" width="2000" height="2000" viewBox="0 0 2000 2000">
<rect x="-200" y="-200" width="2400" height="2400" fill="rgb(100%, 100%, 100%)" fill-opacity="1"/>
<path fill-rule="nonzero" fill="rgb(0%, 0%, 0%)" fill-opacity="1" d="M 439.714844 716.371094 C 427.636719 724.46875 417.226562 734.320312 408.507812 745.96875 C 407.292969 747.609375 404.695312 746.480469 405.035156 744.46875 C 406.671875 734.800781 409.71875 725.089844 414.148438 715.351562 C 428.425781 684.058594 446.542969 655.109375 468.46875 628.5 C 468.949219 627.929688 468.890625 627.058594 468.355469 626.519531 L 437.570312 595.28125 C 437.035156 594.71875 436.132812 594.640625 435.511719 595.121094 C 421.316406 605.359375 407.886719 616.621094 395.242188 628.890625 C 394.425781 629.679688 393.777344 630.160156 393.242188 630.308594 C 392.394531 630.53125 391.714844 629.570312 392.222656 628.871094 C 402.976562 613.628906 415.082031 599.488281 428.511719 586.480469 C 431.445312 583.660156 429.667969 578.71875 425.632812 578.390625 C 422.105469 578.101562 418.609375 578.671875 415.136719 580.050781 C 395.863281 587.808594 376.648438 595.679688 357.429688 603.609375 C 356.5 604.011719 355.710938 602.851562 356.386719 602.121094 C 358.84375 599.488281 362.199219 597.089844 366.460938 594.949219 C 388.980469 583.550781 406.363281 575.28125 418.578125 570.140625 C 419.90625 569.578125 420.273438 568.648438 419.679688 567.320312 L 415.335938 557.929688 C 414.910156 557.050781 413.980469 556.570312 413.019531 556.738281 C 392.195312 560.550781 373.542969 565.96875 357.09375 573 C 355.910156 573.5 354.863281 573.671875 353.933594 573.5 C 353.085938 573.339844 352.917969 572.179688 353.679688 571.78125 C 371.171875 562.691406 389.515625 555.871094 408.703125 551.269531 C 409.691406 551.039062 409.972656 550.480469 409.578125 549.550781 C 398.941406 524.519531 394.085938 497.179688 395.074219 467.519531 C 397.191406 402.140625 417.339844 344.351562 455.515625 294.179688 C 456.109375 293.410156 456.335938 292.570312 456.195312 291.609375 C 450.15625 247.339844 448.179688 198.941406 456.023438 154.75 C 458.085938 143.160156 467.367188 101.390625 483.675781 105.121094 C 490 106.558594 503.683594 117.621094 510.117188 123.710938 C 543.808594 155.628906 573.890625 190.699219 600.328125 228.878906 C 600.835938 229.640625 601.542969 229.898438 602.417969 229.699219 C 653.800781 218.019531 705.328125 217.53125 756.992188 228.289062 C 758.039062 228.480469 758.855469 228.148438 759.449219 227.238281 C 787.328125 185 814.332031 143.71875 852.117188 109.320312 C 854.570312 107.089844 858.746094 104.859375 864.671875 102.640625 C 865.519531 102.320312 866.476562 102.441406 867.210938 102.941406 C 879.570312 111.179688 887.78125 131.078125 893.058594 144.480469 C 922.714844 219.851562 932.28125 297.871094 921.757812 378.550781 C 921.585938 379.820312 921.953125 381.449219 922.886719 383.519531 C 947.746094 438.851562 959.992188 496.921875 959.625 557.78125 C 959.625 558.609375 959.878906 559.390625 960.332031 560.070312 C 990.410156 603.441406 1012.25 650.679688 1025.820312 701.75 C 1026.050781 702.601562 1026.589844 703.328125 1027.320312 703.808594 C 1130.230469 770.710938 1207.539062 859.210938 1259.269531 969.28125 C 1307.269531 1071.429688 1337.230469 1179.730469 1349.199219 1294.210938 C 1364.800781 1443.3125 1344.140625 1607.511719 1264.800781 1735.222656 C 1263.269531 1737.679688 1263.699219 1738.074219 1266.101562 1736.464844 C 1359.328125 1673.257812 1389.96875 1547.886719 1392.480469 1439.503906 C 1394.429688 1355.894531 1388.929688 1285.378906 1384.128906 1208.144531 C 1378.539062 1117.933594 1385.429688 1033.675781 1417.789062 952.210938 C 1445.359375 882.820312 1503.128906 808.300781 1586.761719 812.621094 C 1615.628906 814.109375 1640.058594 834.230469 1637.070312 864.28125 C 1633.828125 896.710938 1605.980469 905.769531 1587.691406 929.191406 C 1532.269531 1000.152344 1516.671875 1093.554688 1526.941406 1181.339844 C 1529.898438 1206.792969 1533.398438 1232.1875 1537.441406 1257.554688 C 1545.25 1306.878906 1550.050781 1356.484375 1551.828125 1406.375 C 1556.878906 1546.476562 1524.179688 1699.78125 1434.191406 1811.75 C 1397.699219 1857.125 1350.070312 1883.675781 1291.269531 1891.4375 C 1260.710938 1895.441406 1231.808594 1897.472656 1204.519531 1897.503906 C 934.339844 1897.726562 664.15625 1896.824219 393.972656 1894.792969 C 342.703125 1894.425781 362.738281 1834.917969 381.164062 1811.917969 C 398.066406 1790.8125 423.09375 1790.136719 447.105469 1797.527344 C 447.925781 1797.78125 448.800781 1797.328125 449.054688 1796.539062 C 456.730469 1773.402344 465.730469 1750.855469 476.058594 1728.875 C 478.34375 1724.019531 479.699219 1718.347656 479.164062 1712.5625 C 470.1875 1616.851562 462.488281 1521.050781 454.019531 1425.28125 C 448.519531 1363.117188 448.238281 1294.746094 453.117188 1220.167969 C 454.78125 1194.714844 451.59375 1167.9375 443.609375 1139.804688 C 437.597656 1118.695312 425.125 1091.523438 418.183594 1069.738281 C 410.394531 1045.300781 407.886719 1019.230469 410.679688 991.488281 C 410.820312 990.25 410.507812 990.140625 409.773438 991.121094 C 401.648438 1002.101562 397.839844 1018.691406 394.339844 1031.476562 C 393.972656 1032.800781 392.054688 1032.773438 391.773438 1031.417969 C 378.59375 968.039062 385 899.75 397.246094 836.828125 C 405.402344 794.839844 419.90625 755 440.757812 717.300781 C 441.691406 715.578125 441.351562 715.269531 439.714844 716.371094 "/>
</svg>
