<?xml version="1.0" encoding="UTF-8"?>
<svg xmlns="http://www.w3.org/2000/svg" xmlns:xlink="http://www.w3.org/1999/xlink" width="2000" height="2000" viewBox="0 0 2000 2000">
<rect x="-200" y="-200" width="2400" height="2400" fill="rgb(100%, 100%, 100%)" fill-opacity="1"/>
<path fill-rule="nonzero" fill="rgb(0%, 0%, 0%)" fill-opacity="1" d="M 951.078125 1620.960938 C 949.984375 1657.660156 934.726562 1700.5625 912.015625 1732.222656 C 911.441406 1732.996094 911.640625 1733.441406 912.613281 1733.542969 C 932.683594 1735.511719 945.121094 1749.820312 953.972656 1766.800781 C 954.320312 1767.496094 955.09375 1767.894531 955.890625 1767.796875 L 1044.859375 1757.476562 C 1045.890625 1757.351562 1046.261719 1756.800781 1045.929688 1755.78125 C 1034.519531 1719.734375 1023.769531 1681.640625 1008.839844 1646.914062 C 998.671875 1623.207031 985.28125 1604.160156 972.617188 1583.269531 C 966.359375 1572.925781 962.171875 1563.476562 958.859375 1552.558594 C 958.507812 1551.359375 956.789062 1551.386719 956.488281 1552.609375 C 951.003906 1575.242188 951.777344 1597.703125 951.078125 1620.960938 M 578.363281 838.691406 C 566.175781 843.769531 555.628906 851.28125 546.777344 861.191406 C 546.40625 861.621094 545.980469 861.820312 545.53125 861.800781 C 544.585938 861.71875 544.359375 861.269531 544.882812 860.449219 C 574.648438 814.25 619.523438 791.269531 668.332031 770.128906 C 705.800781 753.929688 742.25 727.308594 760.621094 690.480469 C 771.089844 669.519531 769.992188 644.839844 781.011719 623.871094 C 782.734375 620.578125 786.199219 615.46875 791.382812 608.519531 C 814.667969 577.308594 818.882812 543.550781 821.273438 503.558594 C 822.644531 480.648438 826.832031 458.238281 833.839844 436.28125 C 838.125 422.890625 846.902344 410.578125 860.136719 399.28125 C 871.457031 389.691406 875.320312 375.5 878.085938 359.148438 C 885.765625 313.851562 898.753906 267.011719 917.078125 218.601562 C 923.734375 201 974.1875 70.289062 1004.28125 126.609375 C 1009.339844 136.109375 1016.539062 153.761719 1025.890625 179.609375 C 1035.839844 207.128906 1049.070312 235.300781 1065.28125 262.601562 C 1065.648438 263.25 1066.199219 263.621094 1066.929688 263.75 L 1119.378906 272.421875 C 1122.671875 272.96875 1126.03125 271.921875 1128.429688 269.628906 L 1233.75 169.089844 C 1235.019531 167.871094 1237.140625 168.640625 1237.339844 170.390625 C 1237.460938 171.460938 1237.320312 172.75 1236.890625 174.269531 C 1225.71875 215.511719 1217.421875 257.308594 1212.011719 299.71875 C 1211.890625 300.609375 1212.191406 301.339844 1212.910156 301.910156 C 1238.058594 321.480469 1260.601562 343.691406 1280.519531 368.550781 C 1281.121094 369.289062 1281.738281 369.289062 1282.390625 368.570312 C 1302.410156 345.308594 1315.46875 318.609375 1321.578125 288.429688 C 1321.648438 288.148438 1321.730469 288.101562 1321.820312 288.25 C 1321.898438 288.320312 1321.949219 288.398438 1322 288.449219 C 1322.148438 288.621094 1322.230469 288.71875 1322.230469 288.769531 C 1318.039062 322.5 1303.980469 345.808594 1284.128906 372.28125 C 1283.261719 373.429688 1283.410156 375.058594 1284.460938 376.050781 C 1285.53125 377.019531 1287.148438 377.050781 1288.21875 376.101562 C 1310.808594 356.328125 1337.78125 346.160156 1369.140625 345.558594 C 1369.171875 345.558594 1369.191406 345.589844 1369.191406 345.589844 C 1369.191406 345.609375 1369.191406 345.640625 1369.171875 345.640625 C 1343.121094 350.25 1321.550781 354.109375 1300.089844 370.839844 C 1296.421875 373.710938 1292.660156 376.480469 1288.839844 379.140625 C 1288.21875 379.570312 1288.121094 380.109375 1288.570312 380.738281 C 1292.289062 385.949219 1295.769531 391.378906 1299.019531 397.019531 C 1307.988281 412.671875 1274.910156 427.828125 1297.5 446.550781 C 1310.011719 456.921875 1329.359375 467.21875 1336.210938 482.371094 C 1343.089844 497.609375 1329.160156 507.980469 1326.109375 521.191406 C 1325.890625 522.140625 1326.269531 522.628906 1327.210938 522.660156 C 1378.519531 524.558594 1433.230469 545.101562 1461.609375 590.320312 C 1461.78125 590.589844 1461.828125 590.859375 1461.730469 591.089844 C 1461.679688 591.160156 1461.628906 591.210938 1461.578125 591.269531 C 1461.5 591.339844 1461.359375 591.339844 1461.308594 591.238281 C 1430.070312 548.160156 1378.839844 527.890625 1326.640625 527.101562 C 1325.691406 527.070312 1325.089844 527.519531 1324.839844 528.441406 L 1322.351562 537.238281 C 1322.101562 538.160156 1322.699219 539.109375 1323.640625 539.238281 C 1363.160156 544.570312 1394.550781 563.320312 1417.75 595.449219 C 1417.828125 595.578125 1417.75 595.75 1417.609375 595.75 L 1416.828125 595.75 C 1416.710938 595.75 1416.609375 595.699219 1416.53125 595.621094 C 1392.570312 565.609375 1360.570312 546.519531 1322.101562 543.25 C 1321.480469 543.199219 1320.859375 543.5 1320.5 544.050781 L 1312.898438 555.839844 C 1312.5 556.441406 1312.898438 557.261719 1313.628906 557.339844 C 1319.089844 557.960938 1324.191406 559.210938 1328.980469 561.019531 C 1371.910156 577.398438 1420.421875 610.609375 1439.539062 653.890625 C 1440.558594 656.160156 1440.390625 656.25 1439.039062 654.160156 C 1432.730469 644.339844 1426.058594 633.320312 1418.078125 624.839844 C 1394.421875 599.738281 1366.628906 580.5 1334.738281 567.109375 C 1324.71875 562.890625 1317.808594 560.03125 1308.558594 560.230469 C 1307.191406 560.25 1306.738281 562.070312 1307.941406 562.75 C 1345.410156 584.011719 1381.078125 614.199219 1397.289062 655.410156 C 1397.410156 655.679688 1397.261719 656.03125 1396.988281 656.128906 C 1396.691406 656.25 1396.359375 656.128906 1396.238281 655.859375 C 1378.070312 616.871094 1343.859375 587.050781 1304.699219 565.140625 C 1304.050781 564.769531 1303.359375 564.691406 1302.628906 564.890625 L 1300.390625 565.488281 C 1298.621094 565.980469 1298.039062 568.199219 1299.390625 569.480469 C 1335.289062 603.410156 1360.339844 650.640625 1357.648438 701.121094 C 1357.628906 701.300781 1357.550781 701.398438 1357.398438 701.398438 L 1357.378906 701.398438 C 1357.28125 701.398438 1357.230469 701.351562 1357.230469 701.25 C 1354.53125 653.640625 1332.871094 602.558594 1295.480469 570.921875 C 1294.808594 570.351562 1294.179688 570.421875 1293.628906 571.148438 C 1287.898438 578.75 1282.160156 586.359375 1276.410156 594.011719 C 1260.699219 614.921875 1249.03125 616.121094 1223.558594 615.75 C 1220.558594 615.691406 1215.558594 616.789062 1213.058594 618.488281 C 1181.320312 640.148438 1172.601562 679.308594 1184.839844 714.460938 C 1191.421875 733.359375 1207.050781 750.761719 1214.808594 770.730469 C 1225.648438 798.601562 1226.691406 826.921875 1218 855.660156 C 1209.5 883.730469 1207.679688 911.558594 1212.539062 939.121094 C 1214.28125 949 1218.421875 966.671875 1224.949219 992.148438 C 1227.371094 1001.574219 1231.480469 1025.28125 1225.929688 1032.085938 C 1225.398438 1032.710938 1225.179688 1032.636719 1225.199219 1031.835938 C 1225.449219 1022.9375 1224.648438 1012.269531 1221.789062 1003.992188 C 1221.710938 1003.765625 1221.460938 1003.617188 1221.210938 1003.691406 C 1220.988281 1003.742188 1220.808594 1003.96875 1220.839844 1004.214844 C 1223.058594 1027.027344 1218.789062 1048.339844 1208.050781 1068.160156 C 1195.089844 1092.039062 1179.460938 1117.09375 1174.269531 1144.46875 C 1172.699219 1152.792969 1171.949219 1164.285156 1172.050781 1178.96875 C 1172.230469 1201.953125 1173.019531 1224.363281 1170.859375 1247.226562 C 1170.808594 1247.773438 1170.359375 1248.195312 1169.808594 1248.222656 C 1169.261719 1248.273438 1168.761719 1247.898438 1168.660156 1247.351562 L 1161.730469 1214.117188 C 1161.128906 1211.226562 1160.210938 1211.128906 1158.960938 1213.792969 C 1148.691406 1235.984375 1145.199219 1255.152344 1143.460938 1281.949219 C 1141.039062 1318.570312 1138.101562 1355.167969 1134.660156 1391.738281 C 1123.410156 1511.273438 1130.121094 1629.140625 1156.46875 1746.382812 C 1156.640625 1747.179688 1157.171875 1747.578125 1157.988281 1747.578125 C 1206.53125 1747.355469 1255.019531 1747.003906 1303.449219 1746.53125 C 1340.519531 1746.183594 1377.140625 1742.269531 1413.371094 1734.789062 C 1525.351562 1711.679688 1603.980469 1625.449219 1610.480469 1510.078125 C 1611.929688 1484.75 1607.789062 1451.246094 1592.730469 1430.855469 C 1584.308594 1419.410156 1569.398438 1413.328125 1562.089844 1400.863281 C 1545.988281 1373.492188 1557.609375 1338.390625 1592.710938 1336.722656 C 1623.371094 1335.277344 1649.941406 1345.273438 1672.429688 1366.734375 C 1708.949219 1401.636719 1723.730469 1447.480469 1724.78125 1498.210938 C 1726.878906 1599.972656 1675.621094 1703.328125 1602.601562 1771.136719 C 1554.089844 1816.15625 1483.269531 1842.582031 1418.148438 1855.273438 C 1366.320312 1865.367188 1313.96875 1870.554688 1261.101562 1870.804688 C 1233.800781 1870.929688 1206.5 1870.953125 1179.210938 1870.902344 C 1178.339844 1870.902344 1177.640625 1871.226562 1177.089844 1871.898438 C 1168.261719 1882.296875 1155.75 1887.457031 1139.570312 1887.378906 C 923.308594 1886.207031 707.074219 1885.261719 490.789062 1885.511719 C 458.753906 1885.535156 442.152344 1885.511719 440.929688 1885.410156 C 415.976562 1883.492188 392.34375 1876.113281 370.082031 1863.25 C 321.742188 1835.304688 292.527344 1793.796875 282.457031 1738.679688 C 282.429688 1738.480469 282.257812 1738.355469 282.054688 1738.355469 C 281.855469 1738.378906 281.683594 1738.527344 281.683594 1738.730469 C 280.960938 1751.914062 281.632812 1765.003906 283.675781 1778.042969 C 283.726562 1778.414062 283.503906 1778.789062 283.128906 1778.914062 C 282.777344 1779.039062 282.378906 1778.863281 282.207031 1778.515625 C 266.425781 1745.085938 257.425781 1709.9375 255.207031 1673.015625 C 255.15625 1672.292969 254.984375 1671.667969 254.683594 1671.171875 C 254.535156 1670.898438 254.386719 1670.621094 254.210938 1670.398438 C 253.660156 1669.648438 253.386719 1669.75 253.386719 1670.671875 C 253.3125 1676.132812 252.914062 1681.589844 252.191406 1687.050781 C 251.816406 1689.917969 251.441406 1689.917969 251.070312 1687.050781 C 245.710938 1645.941406 252.191406 1594.8125 258.945312 1550.191406 C 264.605469 1512.820312 270.265625 1475.425781 275.949219 1438.058594 C 281.40625 1402.085938 290.632812 1367.40625 303.621094 1334.027344 C 303.769531 1333.628906 303.59375 1333.207031 303.222656 1333.007812 C 302.871094 1332.808594 302.398438 1332.933594 302.175781 1333.28125 L 283.578125 1361.425781 C 283.425781 1361.652344 283.152344 1361.726562 282.902344 1361.625 C 282.652344 1361.527344 282.503906 1361.25 282.582031 1361 C 290.53125 1328.792969 302.625 1298.253906 318.851562 1269.386719 C 319.074219 1268.988281 318.550781 1268.566406 318.203125 1268.863281 C 300.480469 1283.648438 285.796875 1300.972656 274.105469 1320.839844 C 273.929688 1321.140625 273.582031 1321.238281 273.28125 1321.113281 C 272.957031 1320.964844 272.808594 1320.640625 272.90625 1320.316406 C 325.40625 1149.453125 435.296875 1004.816406 549.796875 870.96875 C 561.636719 857.109375 571.308594 846.558594 578.8125 839.339844 C 579.835938 838.359375 579.683594 838.140625 578.363281 838.691406 "/>
<path fill-rule="nonzero" fill="rgb(0%, 0%, 0%)" fill-opacity="1" d="M 1278.878906 364.859375 C 1278.679688 364.730469 1278.601562 364.460938 1278.71875 364.261719 L 1278.96875 363.890625 C 1290.710938 344.289062 1300.609375 328.640625 1301.058594 328.910156 L 1301.480469 329.160156 C 1301.910156 329.429688 1292.730469 345.511719 1280.96875 365.078125 L 1280.738281 365.480469 C 1280.621094 365.679688 1280.371094 365.730469 1280.140625 365.609375 Z M 1278.878906 364.859375 "/>
</svg>
