<?xml version="1.0" encoding="UTF-8"?>
<svg xmlns="http://www.w3.org/2000/svg" xmlns:xlink="http://www.w3.org/1999/xlink" width="2401" height="2401" viewBox="0 0 2401 2401">

<path fill-rule="evenodd" fill="rgb(0%, 0%, 0%)" fill-opacity="1" d="M 1336.320312 410.371094 C 1459.191406 395.011719 1548.109375 263.429688 1598.691406 277.378906 C 1670.789062 297.28125 1569.25 493.480469 1574.128906 525.980469 C 1576.460938 541.539062 1550.820312 571.5 1560.339844 632.621094 C 1573.421875 716.601562 1564.089844 822.039062 1545.96875 904.558594 C 1535.191406 953.679688 1542.980469 1017.179688 1567.539062 1038.738281 C 1592.101562 1060.308594 1662.78125 1168.730469 1676.558594 1222.640625 C 1715.089844 1373.421875 1732.699219 1336.351562 1790.289062 1431.992188 C 1850.539062 1532.058594 1893.320312 1762.1875 1828.710938 1853.410156 C 1798.160156 1896.539062 1765.210938 1929.484375 1740.050781 2000.769531 C 1714.890625 2072.050781 1727.46875 2075.046875 1699.921875 2081.636719 C 1672.359375 2088.226562 1583.109375 2082.835938 1572.929688 2106.195312 C 1562.738281 2129.558594 1534.589844 2155.316406 1499.839844 2156.515625 C 1465.101562 2157.710938 1405.800781 2157.113281 1402.199219 2146.929688 C 1398.609375 2136.746094 1393.820312 2188.859375 1384.828125 2215.21875 C 1375.851562 2241.574219 1364.460938 2267.035156 1331.21875 2270.027344 C 1302.699219 2272.597656 1148.839844 2281.882812 1143.429688 2240.078125 C 1141.328125 2223.902344 1136.839844 2168.195312 1152.410156 2145.433594 C 1167.980469 2122.671875 1184.140625 2118.820312 1145.21875 2116.679688 C 1114.078125 2114.964844 1072.871094 2101.765625 1055.699219 2094.121094 C 1042.601562 2088.289062 1018.511719 2082.160156 1012.269531 2101.253906 C 1008.761719 2112.011719 1006.03125 2129.75 1003.550781 2142.738281 C 999.65625 2163.105469 988.273438 2204.4375 950.53125 2209.828125 C 912.796875 2215.21875 766.933594 2208.929688 762.4375 2182.574219 C 758.953125 2162.109375 758.714844 2144.714844 762.285156 2134.734375 C 765.464844 2125.855469 772.515625 2126.964844 756.789062 2124.167969 C 734.742188 2120.25 683.0625 2112.316406 672.285156 2065.164062 C 647.847656 1958.253906 676.714844 1915.839844 774.113281 1873.777344 C 787.292969 1868.085938 802.265625 1871.382812 792.683594 1846.824219 C 741.234375 1714.992188 682.925781 1501 734.578125 1359.820312 C 744.496094 1332.710938 702.644531 1292.96875 729.101562 1211.269531 C 742.445312 1170.058594 761.933594 1117.078125 771.714844 1104.039062 C 786.089844 1084.871094 799.269531 987.230469 817.238281 944.699219 C 830.617188 913.039062 855.148438 811.75 832.214844 784.761719 C 811.847656 760.800781 835.207031 614.039062 873.546875 558.929688 C 911.882812 503.820312 921.46875 499.03125 919.070312 473.871094 C 914.128906 421.988281 889.609375 206.148438 941.230469 175.558594 C 957.40625 165.980469 992.746094 179.75 1026.289062 230.070312 C 1059.839844 280.390625 1085.601562 329.511719 1110.75 345.078125 C 1167.71875 380.339844 1273.410156 418.230469 1336.320312 410.371094 "/>
<path fill="none" stroke-width="19.1672" stroke-linecap="butt" stroke-linejoin="miter" stroke="rgb(99.609375%, 99.609375%, 99.609375%)" stroke-opacity="1" stroke-miterlimit="22.9256" d="M 14773.59375 3139.648438 C 14764.609375 3109.6875 14626.796875 2441.25 14626.796875 2441.25 " transform="matrix(0.1, 0, 0, -0.1, 0, 2401)"/>
<path fill="none" stroke-width="19.1672" stroke-linecap="butt" stroke-linejoin="miter" stroke="rgb(99.609375%, 99.609375%, 99.609375%)" stroke-opacity="1" stroke-miterlimit="22.9256" d="M 13087.304688 1324.609375 C 13087.304688 1342.578125 13132.304688 1441.40625 13177.1875 1764.882812 C 13222.109375 2088.359375 13153.203125 2151.25 13153.203125 2151.25 " transform="matrix(0.1, 0, 0, -0.1, 0, 2401)"/>
<path fill="none" stroke-width="19.1672" stroke-linecap="butt" stroke-linejoin="miter" stroke="rgb(99.609375%, 99.609375%, 99.609375%)" stroke-opacity="1" stroke-miterlimit="22.9256" d="M 12191.40625 1323.984375 C 12191.40625 1323.984375 12335.507812 1543.242188 12434.414062 1827.773438 C 12533.203125 2112.304688 12500.3125 2226.132812 12500.3125 2226.132812 " transform="matrix(0.1, 0, 0, -0.1, 0, 2401)"/>
<path fill="none" stroke-width="19.1672" stroke-linecap="butt" stroke-linejoin="miter" stroke="rgb(99.609375%, 99.609375%, 99.609375%)" stroke-opacity="1" stroke-miterlimit="22.9256" d="M 11541.914062 1459.726562 C 11547.8125 1576.171875 11580.78125 1800.820312 11652.617188 1965.546875 C 11724.492188 2130.273438 11904.21875 2315.976562 11904.21875 2315.976562 " transform="matrix(0.1, 0, 0, -0.1, 0, 2401)"/>
<path fill="none" stroke-width="19.1672" stroke-linecap="butt" stroke-linejoin="miter" stroke="rgb(99.609375%, 99.609375%, 99.609375%)" stroke-opacity="1" stroke-miterlimit="22.9256" d="M 9169.765625 1894.0625 C 9169.765625 1894.0625 9106.757812 2202.148438 9100.78125 2501.640625 C 9094.765625 2801.171875 9175.664062 2906.015625 9175.664062 2906.015625 " transform="matrix(0.1, 0, 0, -0.1, 0, 2401)"/>
<path fill="none" stroke-width="19.1672" stroke-linecap="butt" stroke-linejoin="miter" stroke="rgb(99.609375%, 99.609375%, 99.609375%)" stroke-opacity="1" stroke-miterlimit="22.9256" d="M 8617.8125 1913.554688 C 8617.8125 1913.554688 8555.664062 2393.828125 8555.664062 2543.59375 C 8555.664062 2693.359375 8681.445312 2858.085938 8681.445312 2858.085938 " transform="matrix(0.1, 0, 0, -0.1, 0, 2401)"/>
<path fill="none" stroke-width="19.1672" stroke-linecap="butt" stroke-linejoin="miter" stroke="rgb(99.609375%, 99.609375%, 99.609375%)" stroke-opacity="1" stroke-miterlimit="22.9256" d="M 8084.21875 1977.65625 C 8084.21875 1977.65625 8080.898438 2381.835938 8149.804688 2618.4375 C 8218.671875 2855.039062 8410.390625 3001.796875 8410.390625 3001.796875 " transform="matrix(0.1, 0, 0, -0.1, 0, 2401)"/>
<path fill="none" stroke-width="7.66602" stroke-linecap="butt" stroke-linejoin="miter" stroke="rgb(99.609375%, 99.609375%, 99.609375%)" stroke-opacity="1" stroke-miterlimit="22.9256" d="M 7931.757812 5346.5625 C 7931.757812 5346.5625 8131.796875 4906.679688 8155.742188 4481.367188 C 8179.726562 4056.054688 8239.609375 3816.445312 8035.9375 3391.132812 C 7832.265625 2965.859375 7626.054688 2757.03125 7626.054688 2757.03125 " transform="matrix(0.1, 0, 0, -0.1, 0, 2401)"/>
<path fill="none" stroke-width="19.1672" stroke-linecap="butt" stroke-linejoin="miter" stroke="rgb(99.609375%, 99.609375%, 99.609375%)" stroke-opacity="1" stroke-miterlimit="22.9256" d="M 11690.898438 2772.96875 C 12148.789062 3220 12100.507812 3708.242188 12150.898438 4270.898438 C 12313.398438 6082.109375 13018.789062 6531.09375 13726.484375 8123.359375 " transform="matrix(0.1, 0, 0, -0.1, 0, 2401)"/>
<path fill="none" stroke-width="19.1672" stroke-linecap="butt" stroke-linejoin="miter" stroke="rgb(99.609375%, 99.609375%, 99.609375%)" stroke-opacity="1" stroke-miterlimit="22.9256" d="M 10153.28125 3097.539062 C 10153.28125 3097.539062 10243.203125 4211.71875 10177.304688 4750.859375 C 10004.414062 6165.15625 9378.320312 7063.085938 9266.71875 8123.320312 " transform="matrix(0.1, 0, 0, -0.1, 0, 2401)"/>
<path fill="none" stroke-width="19.1672" stroke-linecap="butt" stroke-linejoin="miter" stroke="rgb(99.609375%, 99.609375%, 99.609375%)" stroke-opacity="1" stroke-miterlimit="22.9256" d="M 14021.992188 2540.703125 C 13990.507812 4527.03125 17031.796875 7263.90625 16245.195312 8758.242188 " transform="matrix(0.1, 0, 0, -0.1, 0, 2401)"/>
<path fill-rule="evenodd" fill="rgb(54.492188%, 54.492188%, 54.881287%)" fill-opacity="1" d="M 1358.71875 579.929688 C 1389.398438 579.929688 1414.28125 600.851562 1414.28125 626.648438 C 1414.28125 652.449219 1389.398438 673.371094 1358.71875 673.371094 C 1328.03125 673.371094 1303.160156 652.449219 1303.160156 626.648438 C 1303.160156 600.851562 1328.03125 579.929688 1358.71875 579.929688 "/>
<path fill-rule="evenodd" fill="rgb(0%, 0%, 0%)" fill-opacity="1" d="M 1361.859375 599.398438 C 1365.578125 599.398438 1368.601562 609.320312 1368.601562 621.558594 C 1368.601562 633.800781 1365.578125 643.71875 1361.859375 643.71875 C 1358.140625 643.71875 1355.121094 633.800781 1355.121094 621.558594 C 1355.121094 609.320312 1358.140625 599.398438 1361.859375 599.398438 "/>
<path fill-rule="evenodd" fill="rgb(54.492188%, 54.492188%, 54.881287%)" fill-opacity="1" d="M 1088.710938 544.441406 C 1119.390625 544.441406 1144.269531 565.359375 1144.269531 591.160156 C 1144.269531 616.960938 1119.390625 637.878906 1088.710938 637.878906 C 1058.019531 637.878906 1033.148438 616.960938 1033.148438 591.160156 C 1033.148438 565.359375 1058.019531 544.441406 1088.710938 544.441406 "/>
<path fill-rule="evenodd" fill="rgb(0%, 0%, 0%)" fill-opacity="1" d="M 1091.851562 563.910156 C 1095.570312 563.910156 1098.589844 573.828125 1098.589844 586.070312 C 1098.589844 598.308594 1095.570312 608.230469 1091.851562 608.230469 C 1088.128906 608.230469 1085.109375 598.308594 1085.109375 586.070312 C 1085.109375 573.828125 1088.128906 563.910156 1091.851562 563.910156 "/>
<path fill="none" stroke-width="19.1672" stroke-linecap="butt" stroke-linejoin="miter" stroke="rgb(37.255859%, 36.473083%, 36.473083%)" stroke-opacity="1" stroke-miterlimit="22.9256" d="M 10606.992188 15702.304688 C 10747.8125 15648.398438 11035.3125 15648.398438 11289.882812 15804.101562 C 11544.492188 15959.882812 11897.890625 16253.398438 11999.804688 16175.507812 C 12101.601562 16097.617188 12263.28125 15855 12443.007812 15690.3125 C 12622.695312 15525.585938 13051.015625 15315.898438 13284.609375 15315.898438 " transform="matrix(0.1, 0, 0, -0.1, 0, 2401)"/>
<path fill="none" stroke-width="19.1672" stroke-linecap="butt" stroke-linejoin="miter" stroke="rgb(37.255859%, 36.473083%, 36.473083%)" stroke-opacity="1" stroke-miterlimit="22.9256" d="M 11973.90625 16186.796875 C 11973.90625 16186.796875 12011.71875 16498.984375 11987.8125 16505 C 11963.789062 16511.015625 11846.992188 16681.71875 11846.992188 16780.507812 C 11846.992188 16879.414062 11808.085938 16933.28125 11748.203125 16945.3125 C 11688.28125 16957.1875 11520.507812 16987.1875 11538.515625 17035.117188 C 11556.484375 17083.007812 11682.304688 17262.695312 11969.804688 17217.8125 C 12257.304688 17172.890625 12463.984375 17145.898438 12523.90625 17088.984375 C 12583.789062 17032.109375 12631.71875 16924.296875 12550.78125 16888.398438 C 12470 16852.382812 12287.304688 16879.414062 12287.304688 16819.492188 C 12287.304688 16759.609375 12281.289062 16621.796875 12164.492188 16561.914062 C 12047.617188 16501.992188 11991.796875 16499.804688 11991.796875 16499.804688 " transform="matrix(0.1, 0, 0, -0.1, 0, 2401)"/>
<path fill="none" stroke-width="3.83517" stroke-linecap="butt" stroke-linejoin="miter" stroke="rgb(45.872498%, 45.483398%, 45.872498%)" stroke-opacity="1" stroke-miterlimit="22.9256" d="M 12700.585938 16310.195312 C 12700.585938 16310.195312 13491.289062 16118.59375 14138.203125 15902.890625 C 14785.117188 15687.304688 14809.101562 15663.28125 14809.101562 15663.28125 " transform="matrix(0.1, 0, 0, -0.1, 0, 2401)"/>
<path fill="none" stroke-width="3.83517" stroke-linecap="butt" stroke-linejoin="miter" stroke="rgb(45.872498%, 45.483398%, 45.872498%)" stroke-opacity="1" stroke-miterlimit="22.9256" d="M 12691.601562 16370.195312 L 14722.1875 16723.59375 " transform="matrix(0.1, 0, 0, -0.1, 0, 2401)"/>
<path fill="none" stroke-width="3.83517" stroke-linecap="butt" stroke-linejoin="miter" stroke="rgb(45.872498%, 45.483398%, 45.872498%)" stroke-opacity="1" stroke-miterlimit="22.9256" d="M 12703.515625 16214.414062 L 14440.703125 15106.210938 " transform="matrix(0.1, 0, 0, -0.1, 0, 2401)"/>
<path fill="none" stroke-width="3.83517" stroke-linecap="butt" stroke-linejoin="miter" stroke="rgb(54.492188%, 54.492188%, 54.881287%)" stroke-opacity="1" stroke-miterlimit="22.9256" d="M 11326.015625 16376.914062 C 11326.015625 16376.914062 10535.3125 16185.195312 9888.359375 15969.609375 C 9241.40625 15753.90625 9217.421875 15730 9217.421875 15730 " transform="matrix(0.1, 0, 0, -0.1, 0, 2401)"/>
<path fill="none" stroke-width="3.83517" stroke-linecap="butt" stroke-linejoin="miter" stroke="rgb(54.492188%, 54.492188%, 54.881287%)" stroke-opacity="1" stroke-miterlimit="22.9256" d="M 11335 16436.796875 L 9304.296875 16790.195312 " transform="matrix(0.1, 0, 0, -0.1, 0, 2401)"/>
<path fill="none" stroke-width="3.83517" stroke-linecap="butt" stroke-linejoin="miter" stroke="rgb(54.492188%, 54.492188%, 54.881287%)" stroke-opacity="1" stroke-miterlimit="22.9256" d="M 11323.007812 16281.09375 L 9585.859375 15172.890625 " transform="matrix(0.1, 0, 0, -0.1, 0, 2401)"/>
</svg>
