<?xml version="1.0" encoding="UTF-8"?>
<svg xmlns="http://www.w3.org/2000/svg" xmlns:xlink="http://www.w3.org/1999/xlink" width="2000" height="2000" viewBox="0 0 2000 2000">
<rect x="-200" y="-200" width="2400" height="2400" fill="rgb(100%, 100%, 100%)" fill-opacity="1"/>
<path fill-rule="nonzero" fill="rgb(0%, 0%, 0%)" fill-opacity="1" d="M 581.742188 1707.027344 C 554.480469 1720.011719 525.410156 1728.703125 507.191406 1750.246094 C 506.40625 1751.1875 506.542969 1751.917969 507.648438 1752.429688 C 539.175781 1767.382812 572.296875 1776.75 607.007812 1780.503906 C 608.222656 1780.636719 608.519531 1780.152344 607.925781 1779.097656 C 595.535156 1756.882812 587.464844 1733.210938 583.6875 1708.054688 C 583.496094 1706.839844 582.851562 1706.515625 581.742188 1707.027344 M 1469.980469 1015.972656 C 1462.53125 1054.597656 1459.660156 1093.601562 1461.371094 1132.984375 C 1461.421875 1134.253906 1459.800781 1134.847656 1459.019531 1133.847656 L 1440.800781 1110.960938 C 1439.53125 1109.339844 1438.910156 1109.554688 1438.960938 1111.632812 L 1441.039062 1196.066406 C 1441.070312 1197.578125 1439.019531 1198.089844 1438.339844 1196.742188 L 1424.769531 1169.800781 C 1424.121094 1168.535156 1422.25 1168.640625 1421.769531 1169.992188 C 1399.421875 1233.503906 1385.25 1298.394531 1379.28125 1364.605469 C 1377.390625 1385.820312 1377.128906 1416.753906 1374.289062 1441.046875 C 1366.410156 1508.664062 1357.628906 1573.445312 1360.519531 1643.679688 C 1361.410156 1664.894531 1365.25 1684.570312 1372.070312 1702.738281 C 1379.980469 1723.765625 1383.601562 1740.339844 1387.648438 1760.445312 C 1390.589844 1775.183594 1398.578125 1782.664062 1411.589844 1782.90625 C 1411.730469 1782.90625 1417.941406 1781.851562 1430.191406 1779.773438 C 1451.21875 1776.183594 1468.089844 1784.121094 1480.859375 1803.632812 C 1486.578125 1812.351562 1489.328125 1821.394531 1489.140625 1830.761719 C 1488.441406 1865.796875 1455.589844 1875.570312 1426.359375 1876.269531 C 1398.199219 1876.972656 1368.75 1871.359375 1338.039062 1859.398438 C 1307.320312 1847.46875 1304.109375 1831.328125 1294.089844 1802.746094 C 1290.179688 1791.597656 1282.519531 1780.800781 1271.148438 1770.351562 C 1260 1760.125 1259.871094 1736.503906 1260.679688 1719.796875 C 1261.191406 1709.511719 1260.980469 1700.46875 1260.089844 1692.695312 C 1256.949219 1665.597656 1252.609375 1639.332031 1251.390625 1612.015625 C 1251.371094 1611.636719 1250.910156 1611.503906 1250.691406 1611.800781 C 1227.480469 1644.328125 1202.910156 1675.503906 1177 1705.328125 C 1163.429688 1720.902344 1154.820312 1740.6875 1151.171875 1764.683594 C 1151.039062 1765.683594 1151.441406 1766.089844 1152.441406 1765.898438 C 1182.859375 1759.90625 1207.75 1767.222656 1227.101562 1787.816406 C 1257.058594 1819.75 1245.621094 1857.429688 1208.988281 1873.597656 C 1198.109375 1878.375 1187.128906 1880.238281 1176 1879.160156 C 1100.589844 1871.84375 1030.25 1862.179688 952.050781 1869.226562 C 896.015625 1874.273438 839.898438 1878.402344 783.726562 1881.640625 C 764.238281 1882.75 744.316406 1882.964844 724.9375 1881.667969 C 677.050781 1878.457031 629.113281 1876.511719 581.121094 1875.890625 C 525.679688 1875.164062 473.882812 1861.34375 425.699219 1834.433594 C 374.792969 1806.007812 368.746094 1761.09375 407.886719 1718.824219 C 449.941406 1673.425781 510.023438 1639.304688 568.355469 1620.628906 C 569.21875 1620.332031 569.597656 1619.761719 569.488281 1618.875 C 564.980469 1575.578125 562.28125 1535.65625 561.417969 1499.082031 C 559.554688 1420.535156 575.101562 1344.847656 606.332031 1272.535156 C 636.753906 1202.058594 667.742188 1137.546875 699.242188 1079.027344 C 745.828125 992.570312 799.515625 918.960938 873.3125 860.339844 C 906.703125 833.78125 942.035156 808.03125 971.214844 776.738281 C 976.746094 770.78125 980.824219 763.96875 983.441406 756.339844 C 983.765625 755.441406 983.46875 755.089844 982.523438 755.308594 L 952.804688 762.171875 C 951.699219 762.410156 950.996094 761.03125 951.859375 760.308594 C 964.898438 749.179688 992.671875 720.269531 994.320312 702.570312 C 994.480469 700.871094 993.914062 700.570312 992.644531 701.730469 L 975.585938 717.03125 C 974.507812 718.011719 972.859375 716.898438 973.320312 715.550781 C 975.800781 708.179688 980.203125 701.761719 986.519531 696.21875 C 998.746094 685.558594 1010.839844 674.710938 1022.800781 663.671875 C 1034.640625 652.738281 1054.378906 629.53125 1042.230469 615.191406 C 1040.070312 612.628906 1034.910156 609.441406 1026.789062 605.589844 C 1005.980469 595.699219 987.085938 582.941406 970.078125 567.28125 C 955.398438 553.761719 955.992188 541.960938 951.320312 525.390625 C 948.488281 515.371094 940.578125 512.078125 940.496094 499.878906 C 940.335938 476 971.914062 466.871094 970.675781 438.960938 C 969.8125 419.230469 967.921875 400.660156 976.503906 384.730469 C 990.59375 358.628906 1021.070312 346.859375 1028.359375 315.519531 C 1029.710938 309.71875 1029.519531 299.140625 1027.761719 283.78125 C 1023.628906 247.589844 1018.101562 211.609375 1011.191406 175.839844 C 1010.351562 171.5 1010.378906 167.230469 1011.269531 163.019531 C 1011.460938 162.160156 1011.941406 161.429688 1012.648438 160.910156 C 1020.558594 155.21875 1031.519531 164.179688 1037.480469 169.898438 C 1068.679688 199.890625 1100.238281 229.53125 1132.171875 258.761719 C 1142.808594 268.5 1152.628906 272.390625 1167.960938 273.550781 C 1180.648438 274.5 1193.308594 275.550781 1205.960938 276.710938 C 1206.910156 276.789062 1207.769531 276.601562 1208.558594 276.121094 C 1223.480469 267.230469 1234.878906 246.589844 1241.300781 230.980469 C 1248.71875 213.011719 1255.820312 194.898438 1262.589844 176.679688 C 1269.429688 158.351562 1290.230469 109.058594 1319.171875 118.671875 C 1327.839844 121.558594 1334.660156 127.421875 1339.679688 136.238281 C 1362.390625 176.300781 1373.878906 217.089844 1388.191406 265.050781 C 1393.511719 282.921875 1396.660156 295.929688 1397.878906 315.28125 C 1401.199219 368.839844 1412.558594 418.070312 1436.828125 466.03125 C 1445.628906 483.441406 1458.398438 502.820312 1480.988281 500.261719 C 1481.769531 500.179688 1482.46875 500.691406 1482.660156 501.449219 C 1482.851562 502.199219 1482.421875 502.980469 1481.691406 503.261719 C 1467.679688 508.488281 1452.859375 506.171875 1438.609375 504.628906 C 1437.179688 504.46875 1436.210938 506.011719 1436.941406 507.21875 C 1444.679688 520.050781 1454.539062 522.929688 1465.410156 531.488281 C 1467.140625 532.808594 1466.929688 533.378906 1464.738281 533.140625 L 1442.960938 530.730469 C 1439.210938 530.328125 1438.449219 531.648438 1440.691406 534.699219 C 1453.078125 551.410156 1466.550781 567.199219 1481.128906 582.070312 C 1482.5 583.480469 1482.230469 583.988281 1480.289062 583.640625 L 1430.238281 574.601562 C 1429.351562 574.429688 1428.679688 575.429688 1429.191406 576.191406 C 1436.609375 587.441406 1444.851562 597.511719 1453.890625 606.449219 C 1473.730469 626.039062 1493.109375 645.941406 1511.980469 666.101562 C 1512.21875 666.371094 1511.980469 666.769531 1511.628906 666.671875 L 1469.191406 652.980469 C 1467.28125 652.359375 1466.789062 652.960938 1467.710938 654.738281 C 1486.039062 690.019531 1501.128906 726.78125 1509.460938 765.589844 C 1522.71875 827.25 1524.660156 889.429688 1515.320312 952.140625 C 1515.210938 952.839844 1514.269531 952.96875 1513.949219 952.328125 L 1493.539062 909.519531 C 1493.058594 908.519531 1491.628906 908.570312 1491.25 909.621094 C 1475.699219 953.078125 1479.398438 993.921875 1484.5 1038.539062 C 1484.660156 1040.050781 1482.660156 1040.78125 1481.820312 1039.484375 C 1477.101562 1032.171875 1473.648438 1024.3125 1471.488281 1015.921875 C 1470.921875 1013.679688 1470.410156 1013.707031 1469.980469 1015.972656 "/>
</svg>
