<?xml version="1.0" encoding="UTF-8"?>
<svg xmlns="http://www.w3.org/2000/svg" xmlns:xlink="http://www.w3.org/1999/xlink" width="2251" height="2251" viewBox="0 0 2251 2251">
<path fill-rule="nonzero" fill="rgb(0%, 0%, 0%)" fill-opacity="1" d="M 148.230469 4.660156 C 139.972656 9.140625 105.175781 46.820312 106.757812 49.621094 C 107.285156 50.558594 104.472656 56.339844 100.605469 62.308594 C 78.8125 95.140625 69.675781 136.191406 70.730469 194.769531 C 71.082031 212.121094 70.554688 220.519531 68.445312 227.421875 C 66.511719 233.949219 65.28125 247.570312 64.402344 272.191406 C 63.347656 306.339844 63.171875 307.640625 58.957031 311.371094 C 55.617188 314.550781 54.914062 316.601562 55.265625 323.871094 C 55.617188 328.730469 56.320312 333.390625 57.023438 333.949219 C 57.726562 334.691406 58.253906 338.429688 58.253906 342.339844 C 58.253906 346.261719 59.132812 351.671875 60.359375 354.660156 C 61.414062 357.640625 62.820312 377.050781 63.699219 399.988281 C 65.105469 445.328125 67.214844 459.511719 77.933594 491.410156 C 81.800781 503.160156 85.492188 515.660156 85.84375 518.839844 C 86.722656 524.058594 86.195312 524.988281 83.03125 524.988281 C 78.636719 524.988281 78.285156 527.230469 81.976562 530.589844 C 83.382812 531.890625 84.613281 534.140625 84.613281 535.628906 C 84.613281 537.121094 86.195312 540.480469 88.128906 543.089844 C 92.347656 548.691406 92.699219 554.839844 89.007812 554.839844 C 85.140625 554.839844 85.84375 557.269531 90.765625 562.308594 C 93.402344 564.921875 94.804688 567.898438 94.277344 569.769531 C 93.75 571.640625 94.453125 574.058594 96.035156 575.371094 C 99.375 578.351562 99.375 591.410156 96.035156 597.75 C 92.523438 604.28125 92.875 605.589844 97.441406 604.839844 C 100.78125 604.28125 101.308594 605.03125 100.957031 610.808594 L 100.429688 617.339844 L 106.40625 610.070312 C 113.609375 601.300781 116.070312 603.730469 110.796875 614.550781 C 105.527344 625.179688 104.121094 647.75 107.988281 653.910156 C 110.097656 657.078125 110.445312 658.761719 108.867188 660.628906 C 105.351562 665.289062 109.21875 665.660156 117.125 661.558594 C 121.519531 659.320312 125.5625 657.460938 125.914062 657.460938 C 128.371094 657.460938 126.089844 661.929688 119.761719 669.578125 C 112.027344 679.101562 111.5 680.78125 115.542969 682.460938 C 118.003906 683.390625 118.355469 685.441406 117.476562 693.089844 C 116.597656 700.738281 116.773438 702.421875 118.882812 701.480469 C 122.222656 700.179688 121.167969 772.75 117.300781 796.449219 C 115.894531 805.589844 114.136719 819.960938 113.433594 828.160156 C 112.730469 836.371094 111.675781 844.769531 110.972656 846.820312 C 110.273438 848.871094 103.242188 858.761719 95.332031 868.839844 C 75.476562 894.390625 76.003906 896.820312 98.847656 880.21875 C 106.757812 874.621094 113.609375 870.328125 114.136719 870.890625 C 114.664062 871.640625 112.730469 875.179688 109.746094 879.101562 C 98.320312 894.210938 91.644531 904.101562 91.644531 905.78125 C 91.644531 909.320312 96.738281 907.269531 101.308594 901.671875 C 107.8125 893.460938 108.867188 896.449219 103.417969 907.269531 C 100.78125 912.308594 96.386719 925.558594 93.578125 936.929688 C 88.65625 956.890625 88.128906 958.019531 66.511719 991.601562 C 54.386719 1010.441406 44.71875 1026.109375 45.070312 1026.671875 C 45.597656 1027.050781 49.289062 1024.25 53.683594 1020.699219 C 64.578125 1011.191406 84.964844 996.820312 86.019531 997.941406 C 86.546875 998.308594 81.976562 1004.289062 76.179688 1011 C 68.796875 1019.210938 65.105469 1025.179688 64.226562 1029.660156 C 62.644531 1038.429688 64.226562 1039.550781 70.554688 1034.511719 C 76.53125 1029.839844 76.707031 1030.398438 73.191406 1044.960938 C 71.785156 1050.738281 70.554688 1061.75 70.554688 1069.210938 C 70.554688 1076.480469 69.675781 1083.199219 68.796875 1083.761719 C 67.742188 1084.320312 67.039062 1086.371094 67.039062 1088.058594 C 67.039062 1090.109375 68.796875 1089.171875 73.367188 1084.511719 C 79.515625 1078.539062 79.691406 1078.351562 78.636719 1082.828125 C 76.179688 1092.160156 75.476562 1110.25 77.230469 1113.800781 C 78.988281 1116.96875 79.164062 1116.601562 79.339844 1111.75 C 79.339844 1105.589844 81.976562 1101.480469 85.84375 1101.480469 C 87.601562 1101.480469 88.128906 1107.269531 88.128906 1126.300781 C 88.128906 1142.339844 89.007812 1154.839844 90.765625 1161.929688 C 95.507812 1180.960938 117.476562 1223.5 145.417969 1267.902344 C 166.507812 1301.113281 176 1318.277344 189.179688 1346.820312 C 198.316406 1366.972656 205.875 1385.441406 205.875 1387.867188 C 205.875 1391.226562 206.578125 1391.972656 209.214844 1391.226562 C 213.429688 1390.105469 215.011719 1394.582031 212.726562 1401.859375 C 211.671875 1405.03125 211.320312 1408.949219 211.847656 1410.628906 C 212.902344 1413.238281 213.605469 1413.054688 217.824219 1408.761719 C 224.679688 1401.859375 225.734375 1402.417969 224.503906 1411.746094 C 223.625 1418.089844 223.976562 1420.890625 226.613281 1424.433594 C 228.367188 1426.859375 233.113281 1437.867188 237.15625 1448.6875 C 246.292969 1473.6875 248.929688 1494.394531 251.566406 1563.425781 C 252.972656 1599.808594 252.972656 1616.410156 251.566406 1623.128906 C 248.226562 1639.359375 224.328125 1687.121094 200.425781 1725.738281 C 178.28125 1761.375 163.695312 1788.800781 163.695312 1794.394531 C 163.695312 1795.890625 161.761719 1798.6875 159.304688 1800.738281 C 156.667969 1802.976562 155.261719 1805.589844 155.964844 1807.269531 C 156.492188 1808.761719 154.734375 1813.425781 152.273438 1817.71875 C 149.636719 1821.820312 147.878906 1826.300781 148.40625 1827.605469 C 148.757812 1828.910156 147.527344 1832.082031 145.769531 1834.695312 C 143.660156 1837.492188 143.136719 1839.546875 144.1875 1839.917969 C 147.175781 1841.039062 146.472656 1844.582031 141.554688 1852.230469 C 134.171875 1863.613281 116.246094 1900.367188 116.246094 1903.910156 C 116.246094 1910.441406 108.515625 1913.054688 79.339844 1916.785156 C 51.75 1920.328125 45.246094 1925.554688 25.742188 1959.695312 C 13.261719 1981.335938 6.058594 1997.941406 4.476562 2008.015625 C 3.773438 2012.308594 2.542969 2016.226562 1.839844 2016.785156 C -0.269531 2018.089844 -0.269531 2038.984375 1.839844 2043.277344 C 2.71875 2044.957031 4.300781 2048.6875 5.355469 2051.671875 C 8.167969 2059.507812 17.128906 2064.546875 26.621094 2063.613281 C 32.945312 2062.867188 36.988281 2063.984375 47.003906 2069.210938 C 68.796875 2080.589844 83.558594 2079.472656 105.703125 2064.917969 C 112.730469 2060.441406 118.707031 2056.710938 119.058594 2056.710938 C 119.410156 2056.710938 123.101562 2059.320312 127.140625 2062.308594 C 138.039062 2070.515625 157.195312 2077.230469 170.023438 2077.230469 C 194.097656 2077.230469 264.394531 2049.246094 276.875 2034.507812 C 278.804688 2032.269531 281.617188 2030.589844 283.550781 2030.589844 C 287.066406 2030.589844 287.59375 2028.539062 284.78125 2025.554688 C 281.96875 2022.566406 284.429688 2019.394531 289.351562 2019.394531 C 292.515625 2019.394531 295.148438 2016.972656 299.191406 2010.441406 C 302.355469 2005.589844 307.453125 1998.6875 310.613281 1995.144531 C 316.941406 1988.054688 327.484375 1965.105469 335.042969 1941.972656 C 340.492188 1925.738281 343.652344 1919.769531 341.898438 1929.65625 C 340.316406 1938.054688 344.882812 1936.933594 347.34375 1928.351562 C 349.101562 1921.636719 351.738281 1920.328125 351.738281 1926.300781 C 351.738281 1928.351562 352.441406 1929.65625 353.320312 1929.097656 C 354.902344 1927.976562 357.714844 1916.226562 359.648438 1902.417969 C 360.875 1893.835938 364.039062 1891.410156 364.039062 1899.058594 C 364.039062 1901.671875 364.742188 1903.726562 365.445312 1903.726562 C 367.378906 1903.726562 371.070312 1890.851562 371.070312 1884.507812 C 371.070312 1881.894531 371.949219 1879.097656 372.828125 1878.539062 C 373.882812 1877.976562 374.585938 1874.433594 374.585938 1870.890625 C 374.585938 1863.054688 377.21875 1857.082031 380.734375 1857.082031 C 382.140625 1857.082031 383.371094 1855.589844 383.371094 1853.726562 C 383.371094 1851.859375 385.128906 1848.875 387.0625 1847.007812 C 390.578125 1843.835938 390.753906 1842.34375 389.875 1824.621094 C 389.347656 1814.359375 388.292969 1803.910156 387.589844 1801.484375 C 386.886719 1799.058594 387.238281 1797.382812 388.46875 1797.382812 C 389.523438 1797.382812 390.753906 1799.433594 391.457031 1802.046875 C 391.984375 1804.65625 393.214844 1806.710938 393.914062 1806.710938 C 396.023438 1806.710938 397.429688 1801.484375 396.199219 1798.3125 C 395.671875 1796.636719 396.550781 1794.394531 398.132812 1793.089844 C 399.714844 1791.785156 402.175781 1786 403.582031 1780.21875 C 406.21875 1769.957031 413.773438 1758.203125 417.816406 1758.203125 C 419.046875 1758.203125 422.738281 1754.65625 426.253906 1750.367188 C 429.589844 1745.890625 432.753906 1742.902344 433.457031 1743.648438 C 433.984375 1744.210938 433.632812 1761.375 432.753906 1781.710938 C 431.699219 1802.230469 430.996094 1825.554688 430.996094 1833.761719 C 431.171875 1841.972656 430.996094 1852.417969 430.820312 1857.082031 C 429.765625 1877.605469 429.941406 1880.402344 432.226562 1879.84375 C 433.808594 1879.65625 434.335938 1883.574219 434.511719 1894.769531 C 434.863281 1916.039062 434.863281 1916.039062 427.65625 1931.710938 L 421.15625 1945.703125 L 409.734375 1946.636719 C 395.671875 1947.941406 392.160156 1949.808594 379.679688 1963.238281 C 367.730469 1976.113281 365.796875 1981.710938 365.796875 2002.976562 C 365.796875 2018.464844 365.972656 2019.582031 370.015625 2021.449219 C 372.300781 2022.566406 375.289062 2026.300781 376.871094 2029.65625 C 378.976562 2034.320312 380.558594 2035.628906 384.601562 2035.628906 C 387.238281 2035.628906 394.089844 2036.933594 399.539062 2038.613281 C 425.902344 2046.449219 472.824219 2047.753906 482.664062 2040.851562 C 487.234375 2037.492188 490.925781 2037.121094 513.417969 2037.121094 C 537.320312 2037.121094 539.78125 2036.746094 552.785156 2031.710938 C 563.679688 2027.417969 566.140625 2025.738281 564.03125 2024.246094 C 561.570312 2022.753906 561.921875 2021.449219 566.140625 2013.984375 C 576.335938 1996.636719 584.066406 1976.484375 587.582031 1958.574219 C 590.746094 1942.34375 590.921875 1936 590.042969 1906.894531 L 589.164062 1873.6875 L 595.136719 1866.597656 C 602.519531 1858.015625 603.046875 1854.65625 596.894531 1856.335938 C 593.03125 1857.269531 592.679688 1856.894531 593.207031 1852.046875 C 593.730469 1849.246094 594.785156 1844.582031 595.839844 1841.785156 C 597.773438 1836.1875 596.71875 1830.964844 593.03125 1828.539062 C 589.164062 1826.113281 590.394531 1819.769531 595.136719 1817.902344 C 600.585938 1815.664062 600.585938 1815.292969 595.664062 1810.253906 C 592.855469 1807.457031 592.328125 1805.964844 593.90625 1805.402344 C 594.960938 1804.84375 596.015625 1803.351562 596.015625 1802.046875 C 596.015625 1800.554688 597.597656 1797.941406 599.355469 1796.074219 C 601.640625 1793.835938 603.046875 1789.359375 603.574219 1783.390625 C 604.101562 1778.164062 605.15625 1772.007812 606.035156 1769.769531 C 607.617188 1765.476562 607.96875 1765.664062 615.171875 1775.738281 C 622.730469 1786.1875 622.90625 1786.375 621.675781 1797.382812 C 620.621094 1806.148438 620.972656 1808.574219 622.90625 1808.574219 C 624.136719 1808.574219 626.070312 1807.644531 627.296875 1806.335938 C 630.109375 1803.351562 629.933594 1804.84375 626.597656 1818.277344 C 625.015625 1824.808594 624.3125 1832.457031 625.015625 1836.375 C 625.71875 1840.476562 625.015625 1846.261719 623.257812 1851.300781 C 619.214844 1863.425781 616.753906 1883.015625 617.984375 1892.15625 C 619.214844 1901.671875 621.5 1901.113281 623.082031 1890.851562 C 623.785156 1886.1875 625.71875 1882.269531 628 1880.589844 C 633.097656 1876.859375 633.800781 1877.976562 630.460938 1884.695312 C 626.945312 1891.785156 628.878906 1893.648438 634.152344 1888.425781 C 638.898438 1883.761719 641.183594 1884.882812 638.195312 1890.664062 C 636.4375 1894.023438 636.789062 1895.144531 639.425781 1897.382812 C 642.414062 1899.808594 642.414062 1900.179688 639.601562 1902.046875 C 637.84375 1902.976562 636.4375 1904.65625 636.4375 1905.402344 C 636.4375 1907.269531 642.765625 1905.964844 660.511719 1900.179688 C 682.128906 1893.089844 681.074219 1896.449219 657.878906 1909.136719 C 639.25 1919.210938 634.152344 1923.128906 620.796875 1937.121094 C 596.71875 1962.121094 588.109375 1983.015625 588.109375 2016.597656 C 588.109375 2039.546875 589.339844 2043.464844 600.410156 2055.21875 C 609.375 2064.730469 616.402344 2066.785156 633.625 2065.476562 C 643.816406 2064.546875 650.320312 2065.105469 656.472656 2066.972656 C 670.707031 2071.636719 693.027344 2073.5 704.449219 2071.261719 C 710.074219 2070.144531 719.386719 2069.023438 725.1875 2068.835938 C 730.984375 2068.648438 737.136719 2067.71875 738.71875 2066.972656 C 740.300781 2066.226562 742.761719 2066.410156 743.8125 2067.15625 C 745.042969 2067.902344 751.722656 2068.648438 758.402344 2068.835938 C 766.835938 2069.210938 782.125 2072.382812 805.148438 2078.726562 C 832.210938 2086.1875 846.269531 2088.984375 871.929688 2091.972656 C 930.449219 2098.6875 1000.039062 2104.097656 1102.679688 2110.066406 L 1154.871094 2113.054688 L 1173.851562 2120.328125 C 1184.21875 2124.433594 1194.941406 2128.726562 1197.570312 2129.84375 C 1200.210938 2130.964844 1203.019531 2131.148438 1203.730469 2130.402344 C 1204.429688 2129.65625 1203.898438 2128.539062 1202.851562 2128.164062 C 1200.738281 2127.417969 1199.511719 2122.007812 1201.269531 2122.007812 C 1201.621094 2122.007812 1205.839844 2123.6875 1210.578125 2125.925781 C 1217.078125 2128.910156 1220.949219 2129.472656 1226.921875 2128.539062 C 1231.320312 2127.792969 1244.320312 2127.605469 1255.921875 2127.976562 C 1286.679688 2128.910156 1336.761719 2128.164062 1343.789062 2126.859375 C 1348.359375 2125.925781 1350.121094 2124.433594 1351 2120.890625 C 1351.519531 2118.464844 1353.628906 2115.476562 1355.390625 2114.546875 C 1359.429688 2112.121094 1361.359375 2102.046875 1358.910156 2095.328125 C 1357.320312 2090.851562 1357.5 2090.292969 1360.480469 2090.292969 C 1362.421875 2090.292969 1364 2088.984375 1364 2087.492188 C 1364 2083.574219 1367.519531 2083.949219 1377.53125 2088.800781 C 1391.421875 2095.328125 1438.691406 2100.554688 1441.328125 2095.890625 C 1443.441406 2092.15625 1463.289062 2095.703125 1517.949219 2109.695312 C 1578.398438 2125.179688 1601.601562 2129.65625 1670.671875 2138.800781 C 1737.269531 2147.566406 1787.539062 2152.792969 1829.710938 2155.589844 C 1846.578125 2156.710938 1870.839844 2158.390625 1883.308594 2159.507812 C 1895.96875 2160.628906 1914.070312 2161.746094 1923.730469 2162.121094 C 1943.769531 2162.679688 1945.351562 2163.054688 1989.640625 2177.976562 C 2007.558594 2183.949219 2032.871094 2192.34375 2045.871094 2196.636719 C 2065.910156 2203.164062 2072.058594 2206.148438 2084.890625 2215.476562 C 2102.289062 2228.164062 2134.089844 2244.023438 2150.089844 2247.941406 C 2158.171875 2249.992188 2172.578125 2250.738281 2205.621094 2250.738281 L 2250.261719 2250.738281 L 2249.03125 2230.589844 C 2248.320312 2219.582031 2246.921875 2209.882812 2246.039062 2208.761719 C 2245.160156 2207.828125 2244.460938 2204.285156 2244.460938 2200.925781 C 2244.460938 2197.382812 2243.410156 2191.785156 2242 2188.425781 C 2240.421875 2184.320312 2240.070312 2181.523438 2241.121094 2180.402344 C 2243.410156 2177.976562 2224.25 2150.554688 2211.421875 2137.308594 C 2196.308594 2122.007812 2172.929688 2106.710938 2131.980469 2085.253906 C 2111.25 2074.246094 2091.039062 2063.054688 2087.171875 2060.441406 C 2071.878906 2049.433594 2030.410156 2030.03125 2005.449219 2022.007812 C 1994.03125 2018.277344 1993.148438 2017.71875 1998.421875 2017.53125 C 2004.398438 2017.15625 2004.21875 2016.972656 1994.910156 2013.800781 C 1989.640625 2011.746094 1983.480469 2010.253906 1981.378906 2010.253906 C 1979.269531 2010.066406 1977.328125 2009.320312 1976.980469 2008.203125 C 1976.109375 2005.03125 1958.359375 2002.605469 1936.210938 2002.605469 C 1924.609375 2002.605469 1911.609375 2001.671875 1907.570312 2000.738281 C 1887.878906 1995.890625 1869.78125 1994.769531 1784.019531 1993.277344 C 1682.621094 1991.597656 1673.128906 1990.664062 1631.648438 1979.285156 C 1604.589844 1971.636719 1591.589844 1966.785156 1571.898438 1956.335938 C 1543.078125 1940.851562 1503.890625 1912.308594 1482.980469 1891.597656 C 1471.558594 1880.21875 1447.480469 1837.679688 1444.308594 1823.3125 C 1443.609375 1820.515625 1441.859375 1800.367188 1440.449219 1778.539062 C 1436.761719 1725.179688 1433.941406 1701.671875 1424.628906 1646.820312 C 1412.679688 1577.417969 1404.421875 1545.328125 1391.589844 1518.464844 C 1386.671875 1507.828125 1380.691406 1484.320312 1382.449219 1482.269531 C 1382.980469 1481.894531 1385.089844 1483.203125 1387.378906 1485.441406 C 1394.929688 1493.089844 1394.230469 1489.546875 1386.140625 1479.65625 C 1378.941406 1471.074219 1372.789062 1457.082031 1375.070312 1454.65625 C 1375.949219 1453.910156 1390.359375 1469.394531 1394.929688 1476.113281 C 1396.160156 1477.792969 1397.570312 1478.726562 1398.269531 1478.164062 C 1399.148438 1477.046875 1381.75 1451.300781 1370.679688 1437.679688 C 1368.039062 1434.320312 1365.761719 1429.65625 1365.761719 1427.417969 C 1365.761719 1425.179688 1361.359375 1417.71875 1356.269531 1410.8125 C 1342.390625 1392.902344 1332.019531 1369.210938 1331.488281 1354.65625 C 1331.140625 1342.53125 1326.570312 1328.726562 1310.398438 1288.984375 C 1297.21875 1256.710938 1291.769531 1245.890625 1272.789062 1215.660156 C 1232.550781 1151.109375 1207.769531 1118.28125 1166.289062 1074.429688 C 1124.121094 1029.660156 1060.851562 977.789062 1013.050781 948.871094 C 966.300781 920.519531 892.140625 882.460938 874.390625 877.789062 C 870.699219 876.859375 860.15625 873.308594 851.367188 869.960938 C 839.066406 865.480469 835.023438 863.238281 835.023438 860.808594 C 835.023438 857.460938 839.59375 855.21875 846.796875 855.21875 C 848.90625 855.21875 851.191406 854.289062 851.894531 852.980469 C 853.125 850.929688 847.851562 851.109375 819.382812 854.660156 L 809.894531 855.78125 L 810.945312 849.621094 C 811.648438 846.261719 813.582031 842.339844 815.339844 841.039062 C 817.976562 838.800781 817.625 838.609375 812.175781 839.730469 C 808.839844 840.289062 801.808594 842.898438 796.710938 845.328125 C 784.761719 851.109375 780.542969 849.988281 785.640625 842.53125 C 787.574219 839.550781 792.671875 833.761719 797.0625 829.46875 C 801.457031 825.179688 805.148438 821.070312 805.148438 820.519531 C 805.148438 819.960938 793.550781 825.738281 779.488281 833.570312 C 765.429688 841.230469 754.183594 846.820312 754.535156 846.070312 C 755.0625 844.390625 778.082031 824.25 788.101562 816.410156 C 797.765625 808.949219 795.304688 808.949219 777.554688 816.230469 C 714.640625 842.339844 707.789062 844.019531 677.910156 840.289062 C 665.785156 838.800781 656.648438 836.75 655.59375 835.25 C 654.539062 833.949219 654.011719 829.839844 654.363281 826.109375 C 654.890625 820.890625 654.539062 819.769531 652.429688 820.328125 C 643.46875 822.941406 643.292969 822.75 646.101562 811.75 C 648.210938 803.351562 642.941406 805.589844 638.546875 815.109375 C 636.4375 819.769531 633.976562 823.5 632.921875 823.5 C 630.285156 823.5 632.21875 807.460938 635.382812 802.609375 C 640.832031 794.390625 638.195312 792.898438 631.164062 800.179688 C 622.554688 808.949219 621.851562 806.148438 628.527344 788.980469 C 633.273438 776.859375 634.152344 768.28125 630.8125 767.160156 C 629.40625 766.601562 629.933594 764.730469 632.394531 761.191406 C 636.964844 755.03125 636.085938 751.109375 629.582031 749.621094 C 603.046875 743.28125 592.503906 739.730469 592.503906 737.488281 C 592.503906 736.558594 595.839844 734.140625 600.058594 731.890625 C 612.183594 725.179688 618.863281 719.019531 618.863281 714.171875 C 618.863281 711.558594 620.796875 708.390625 624.136719 705.960938 C 626.945312 703.910156 628.878906 701.109375 628.351562 699.621094 C 627.824219 698.308594 629.582031 694.960938 632.042969 691.96875 C 635.03125 688.800781 636.085938 686.371094 634.855469 685.628906 C 633.800781 684.878906 634.503906 682.640625 636.964844 679.839844 C 640.128906 675.929688 640.832031 672.941406 640.832031 662.679688 C 640.832031 652.050781 641.535156 649.429688 645.046875 645.519531 C 647.507812 642.71875 648.738281 640.480469 648.210938 640.480469 C 647.507812 640.289062 646.277344 639.921875 645.222656 639.730469 C 644.34375 639.550781 643.117188 639.171875 642.589844 638.980469 C 642.0625 638.980469 643.992188 635.441406 646.804688 631.148438 C 651.199219 624.808594 651.726562 622.941406 649.96875 619.960938 C 648.386719 617.160156 648.386719 615.660156 649.96875 613.058594 C 668.070312 585.808594 684.0625 525.371094 683.710938 486.191406 C 683.359375 463.238281 691.269531 434.691406 699.351562 429.28125 C 700.40625 428.539062 701.460938 424.621094 701.460938 420.699219 C 701.460938 416.601562 702.515625 412.488281 704.097656 411.191406 C 708.140625 407.640625 707.261719 405.398438 702.339844 406.710938 C 699.878906 407.269531 697.945312 407.460938 697.945312 406.710938 C 697.945312 405.398438 704.800781 392.339844 706.910156 389.550781 C 707.789062 388.429688 710.773438 381.519531 713.585938 374.25 C 719.738281 358.570312 721.847656 338.800781 719.210938 321.820312 C 717.628906 311.558594 717.980469 307.828125 721.671875 291.96875 C 735.554688 233.390625 744.164062 161.558594 743.289062 113.609375 C 742.9375 99.058594 743.636719 88.238281 745.042969 82.640625 C 747.328125 74.621094 747.152344 73.308594 743.636719 64.921875 C 741.355469 59.878906 739.070312 52.421875 738.542969 48.308594 L 737.488281 40.851562 L 721.847656 40.289062 C 711.125 39.921875 703.746094 40.660156 697.945312 42.71875 C 688.105469 46.261719 655.066406 68.839844 631.164062 88.429688 C 607.441406 108.019531 538.023438 182.828125 538.023438 188.800781 C 538.023438 189.730469 535.035156 193.460938 531.167969 197.191406 C 526.25 202.050781 523.261719 203.351562 520.097656 202.789062 C 517.285156 202.230469 511.660156 204.101562 504.808594 207.828125 C 493.386719 213.800781 486.179688 214.730469 494.613281 208.949219 C 499.359375 205.589844 500.941406 202.230469 497.601562 202.230469 C 496.722656 202.230469 493.035156 204.28125 489.519531 206.890625 C 485.828125 209.511719 480.554688 211.558594 477.214844 211.558594 C 463.507812 211.558594 424.320312 198.871094 403.40625 187.679688 C 399.539062 185.628906 390.753906 183.570312 383.371094 182.828125 C 374.9375 182.078125 369.488281 180.589844 368.257812 178.910156 C 365.621094 174.988281 364.039062 175.371094 364.039062 179.839844 C 364.039062 184.140625 363.335938 184.320312 358.59375 181.710938 C 355.429688 179.839844 354.375 180.960938 355.078125 185.808594 C 355.078125 186.558594 353.671875 188.058594 351.914062 189.171875 C 349.101562 190.660156 348.222656 190.289062 347.34375 187.308594 C 346.113281 183.390625 342.953125 182.078125 342.953125 185.441406 C 342.953125 189.730469 339.613281 186.75 333.636719 177.421875 C 330.296875 172.191406 322.566406 161.929688 316.765625 155.03125 C 310.789062 147.941406 304.113281 138.429688 301.828125 133.570312 C 295.5 120.519531 275.46875 88.609375 256.3125 61.75 C 246.820312 48.5 239.265625 36.75 239.265625 35.25 C 239.265625 32.269531 225.558594 18.648438 218.878906 15.109375 C 210.96875 11 187.246094 4.839844 170.726562 2.609375 C 162.640625 1.671875 155.789062 0.738281 155.789062 0.738281 C 155.789062 0.738281 152.449219 2.609375 148.230469 4.660156 Z M 885.460938 1402.230469 C 884.933594 1403.726562 884.40625 1403.164062 884.40625 1401.113281 C 884.230469 1399.058594 884.757812 1397.941406 885.285156 1398.6875 C 885.8125 1399.246094 885.988281 1400.925781 885.460938 1402.230469 Z M 885.460938 1402.230469 "/>
</svg>
